<?xml version="1.0" encoding="UTF-8" standalone="no"?>
<svg
   enable-background="new 0 0 32 32"
   height="32px"
   version="1.1"
   viewBox="0 0 32 32"
   width="32px"
   xml:space="preserve"
   id="svg131"
   sodipodi:docname="3287271_blockchain_blocks_data_database_icon.svg"
   inkscape:version="1.2.1 (9c6d41e410, 2022-07-14)"
   xmlns:inkscape="http://www.inkscape.org/namespaces/inkscape"
   xmlns:sodipodi="http://sodipodi.sourceforge.net/DTD/sodipodi-0.dtd"
   xmlns="http://www.w3.org/2000/svg"
   xmlns:svg="http://www.w3.org/2000/svg"><defs
     id="defs135" /><sodipodi:namedview
     id="namedview133"
     pagecolor="#ffffff"
     bordercolor="#666666"
     borderopacity="1.0"
     inkscape:showpageshadow="2"
     inkscape:pageopacity="0.0"
     inkscape:pagecheckerboard="0"
     inkscape:deskcolor="#d1d1d1"
     showgrid="false"
     inkscape:zoom="25.21875"
     inkscape:cx="15.980173"
     inkscape:cy="16.019827"
     inkscape:window-width="1920"
     inkscape:window-height="979"
     inkscape:window-x="0"
     inkscape:window-y="32"
     inkscape:window-maximized="1"
     inkscape:current-layer="svg131" /><g
     id="blockchain_data_1_"><g
       id="g128"><g
         id="g8"><g
           id="g6"><g
             id="g4"><path
               d="M26.5,30h-8c-0.276,0-0.5-0.224-0.5-0.5v-8c0-0.276,0.224-0.5,0.5-0.5h8c0.276,0,0.5,0.224,0.5,0.5v8       C27,29.776,26.776,30,26.5,30z M19,29h7v-7h-7V29z"
               fill="#263238"
               id="path2" /></g></g></g><g
         id="g16"><g
           id="g14"><g
             id="g12"><path
               d="M10.5,30h-8C2.224,30,2,29.776,2,29.5v-8C2,21.224,2.224,21,2.5,21h8c0.276,0,0.5,0.224,0.5,0.5v8       C11,29.776,10.776,30,10.5,30z M3,29h7v-7H3V29z"
               fill="#263238"
               id="path10" /></g></g></g><g
         id="g24"><g
           id="g22"><g
             id="g20"><path
               d="M26.5,14h-8c-0.276,0-0.5-0.224-0.5-0.5v-8c0-0.133,0.053-0.26,0.146-0.354l3-3       C21.24,2.053,21.367,2,21.5,2h8C29.776,2,30,2.224,30,2.5v8c0,0.133-0.053,0.26-0.146,0.354l-3,3       C26.76,13.947,26.633,14,26.5,14z M19,13h7.293L29,10.293V3h-7.293L19,5.707V13z"
               fill="#263238"
               id="path18" /></g></g></g><g
         id="g32"><g
           id="g30"><g
             id="g28"><path
               d="M26.5,14h-8c-0.276,0-0.5-0.224-0.5-0.5v-8C18,5.224,18.224,5,18.5,5h8C26.776,5,27,5.224,27,5.5v8       C27,13.776,26.776,14,26.5,14z M19,13h7V6h-7V13z"
               fill="#263238"
               id="path26" /></g></g></g><g
         id="g40"><g
           id="g38"><g
             id="g36"><path
               d="M10.5,14h-8C2.224,14,2,13.776,2,13.5v-8C2,5.224,2.224,5,2.5,5h8C10.776,5,11,5.224,11,5.5v8       C11,13.776,10.776,14,10.5,14z M3,13h7V6H3V13z"
               fill="#263238"
               id="path34" /></g></g></g><g
         id="g48"><g
           id="g46"><g
             id="g44"><path
               d="M26.5,22c-0.128,0-0.256-0.049-0.354-0.146c-0.195-0.195-0.195-0.512,0-0.707l2.5-2.5       c0.195-0.195,0.512-0.195,0.707,0s0.195,0.512,0,0.707l-2.5,2.5C26.756,21.951,26.628,22,26.5,22z"
               fill="#263238"
               id="path42" /></g></g></g><g
         id="g56"><g
           id="g54"><g
             id="g52"><path
               d="M10.5,22c-0.128,0-0.256-0.049-0.354-0.146c-0.195-0.195-0.195-0.512,0-0.707l2.5-2.5       c0.195-0.195,0.512-0.195,0.707,0s0.195,0.512,0,0.707l-2.5,2.5C10.756,21.951,10.628,22,10.5,22z"
               fill="#263238"
               id="path50" /></g></g></g><g
         id="g64"><g
           id="g62"><g
             id="g60"><path
               d="M26.5,6c-0.128,0-0.256-0.049-0.354-0.146c-0.195-0.195-0.195-0.512,0-0.707l2.5-2.5       c0.195-0.195,0.512-0.195,0.707,0s0.195,0.512,0,0.707l-2.5,2.5C26.756,5.951,26.628,6,26.5,6z"
               fill="#263238"
               id="path58" /></g></g></g><g
         id="g72"><g
           id="g70"><g
             id="g68"><path
               d="M10.5,6c-0.128,0-0.256-0.049-0.354-0.146c-0.195-0.195-0.195-0.512,0-0.707l2.5-2.5       c0.195-0.195,0.512-0.195,0.707,0s0.195,0.512,0,0.707l-2.5,2.5C10.756,5.951,10.628,6,10.5,6z"
               fill="#263238"
               id="path66" /></g></g></g><g
         id="g80"><g
           id="g78"><g
             id="g76"><path
               d="M18,25h-5.5c-0.276,0-0.5-0.224-0.5-0.5s0.224-0.5,0.5-0.5H18c0.276,0,0.5,0.224,0.5,0.5       S18.276,25,18,25z"
               fill="#263238"
               id="path74" /></g></g></g><g
         id="g88"><g
           id="g86"><g
             id="g84"><path
               d="M18,9h-5.5C12.224,9,12,8.776,12,8.5S12.224,8,12.5,8H18c0.276,0,0.5,0.224,0.5,0.5S18.276,9,18,9z"
               fill="#263238"
               id="path82" /></g></g></g><g
         id="g94"><g
           id="g92"><path
             d="M18.5,30c-0.276,0-0.5-0.224-0.5-0.5v-8c0-0.133,0.053-0.26,0.146-0.354l3-3      c0.195-0.195,0.512-0.195,0.707,0s0.195,0.512,0,0.707L19,21.707V29h7.293L29,26.293V19h-3.5c-0.276,0-0.5-0.224-0.5-0.5l0,0      c0-0.276,0.224-0.5,0.5-0.5h4c0.276,0,0.5,0.224,0.5,0.5v8c0,0.133-0.053,0.26-0.146,0.354l-3,3C26.76,29.947,26.633,30,26.5,30      H18.5z"
             fill="#263238"
             id="path90" /></g></g><g
         id="g102"><g
           id="g100"><g
             id="g98"><path
               d="M23.5,20c-0.276,0-0.5-0.224-0.5-0.5V14c0-0.276,0.224-0.5,0.5-0.5S24,13.724,24,14v5.5       C24,19.776,23.776,20,23.5,20z"
               fill="#263238"
               id="path96" /></g></g></g><g
         id="g110"><g
           id="g108"><g
             id="g106"><path
               d="M7.5,20C7.224,20,7,19.776,7,19.5V14c0-0.276,0.224-0.5,0.5-0.5S8,13.724,8,14v5.5       C8,19.776,7.776,20,7.5,20z"
               fill="#263238"
               id="path104" /></g></g></g><g
         id="g116"><g
           id="g114"><path
             d="M2.5,14C2.224,14,2,13.776,2,13.5v-8c0-0.133,0.053-0.26,0.146-0.354l3-3C5.24,2.053,5.367,2,5.5,2h8      C13.776,2,14,2.224,14,2.5v4C14,6.776,13.776,7,13.5,7l0,0C13.224,7,13,6.776,13,6.5V3H5.707L3,5.707V13h7.293l2.854-2.854      c0.195-0.195,0.512-0.195,0.707,0s0.195,0.512,0,0.707l-3,3C10.76,13.947,10.633,14,10.5,14H2.5z"
             fill="#263238"
             id="path112" /></g></g><g
         id="g120"><path
           d="M10.5,30h-8C2.224,30,2,29.776,2,29.5v-8c0-0.133,0.053-0.26,0.146-0.354l3-3     c0.195-0.195,0.512-0.195,0.707,0s0.195,0.512,0,0.707L3,21.707V29h7.293l2.854-2.854c0.195-0.195,0.512-0.195,0.707,0     s0.195,0.512,0,0.707l-3,3C10.76,29.947,10.633,30,10.5,30z"
           fill="#263238"
           id="path118" /></g><g
         id="g126"><g
           id="g124"><path
             d="M13,22.5V19H9.5C9.224,19,9,18.776,9,18.5l0,0C9,18.224,9.224,18,9.5,18h4c0.276,0,0.5,0.224,0.5,0.5v4      c0,0.276-0.224,0.5-0.5,0.5l0,0C13.224,23,13,22.776,13,22.5z"
             fill="#263238"
             id="path122" /></g></g></g></g><path
     style="fill:#3c6eb4;stroke-width:0.039653"
     d="M 7.2941228,19.925552 C 7.0260766,19.788962 7.0384139,19.938898 7.0384139,16.817886 V 13.999929 L 4.6889715,13.988812 C 2.1284395,13.976696 2.254326,13.988094 2.0880633,13.753324 2.0280443,13.668575 2.0212974,13.307455 2.0107618,9.6158612 2.0044132,7.3913259 2.0101327,5.508798 2.0234718,5.4324659 2.0440222,5.3148682 2.2906036,5.0502741 3.6386378,3.6993131 4.51364,2.8224112 5.2752067,2.086073 5.3310084,2.0630059 c 0.069675,-0.028802 1.396166,-0.038641 4.2345311,-0.031407 l 4.1330735,0.010533 0.129628,0.1296128 0.129628,0.1296129 0.0099,2.1504367 c 0.0077,1.6704327 -0.0013,2.1722986 -0.04023,2.2483789 -0.02756,0.053869 -0.112295,0.1401624 -0.18831,0.1917648 C 13.552888,7.0184352 13.33841,6.9923538 13.168541,6.82254 L 13.045849,6.6999169 13.034572,5.1938246 c -0.0062,-0.8283507 -0.02451,-1.5060923 -0.04069,-1.5060923 -0.01618,0 -0.479502,0.451362 -1.029615,1.0030266 l -1.000206,1.0030267 v 3.3288067 3.3288067 l 1.120199,-1.11576 c 0.616109,-0.613668 1.159174,-1.135484 1.206811,-1.15959 0.219039,-0.1108457 0.520129,-0.006 0.626501,0.218164 0.07516,0.158383 0.07603,0.267149 0.0032,0.404163 -0.08783,0.165309 -3.160155,3.210704 -3.286458,3.257652 -0.06912,0.02569 -0.593839,0.04149 -1.3779425,0.04149 H 7.9900867 v 2.776986 c 0,3.001728 0.00209,2.970868 -0.2105853,3.110218 -0.145056,0.09504 -0.345838,0.111932 -0.4853786,0.04083 z M 10.012392,9.4969021 V 5.9876084 H 6.5030979 2.9938042 v 3.5092937 3.5092939 h 3.5092937 3.5092941 z m 1.296849,-5.4611718 c 0.551665,-0.5501129 1.003027,-1.0140534 1.003027,-1.0309789 0,-0.016926 -1.485631,-0.030774 -3.3014015,-0.030774 H 5.7094652 l -1.030407,1.0309789 -1.0304069,1.030979 h 3.3287814 3.3287823 z"
     id="path310" /><path
     style="fill:#3c6eb4;stroke-width:0.039653"
     d="m 23.306853,19.926341 c -0.07045,-0.03063 -0.164064,-0.114687 -0.20803,-0.1868 -0.07816,-0.128192 -0.07994,-0.193643 -0.08009,-2.936567 l -1.49e-4,-2.805452 h -2.281323 c -2.437669,0 -2.440367,-1.99e-4 -2.615827,-0.196935 -0.07715,-0.0865 -0.0796,-0.152982 -0.09013,-2.444134 L 18.020477,9.0012392 15.295245,9.000293 C 13.774724,8.9997653 12.499897,8.9831669 12.4114,8.9627452 11.945933,8.8553322 11.896033,8.2490353 12.337478,8.0645877 12.444455,8.01989 12.975062,8.0099133 15.245319,8.0099133 h 2.776986 V 6.6993939 c 0,-1.0622005 0.01078,-1.3308084 0.05689,-1.417596 0.06178,-0.1162797 3.032924,-3.0884454 3.193569,-3.194666 0.08916,-0.058955 0.470969,-0.064827 4.215104,-0.064827 4.492104,0 4.253093,-0.012235 4.414546,0.2259782 0.07254,0.1070257 0.07568,0.2581609 0.0861,4.148065 0.0076,2.8458056 -0.0021,4.0860409 -0.03287,4.2032219 -0.03811,0.14497 -0.244878,0.367914 -1.616771,1.743239 -1.222195,1.225252 -1.604031,1.585626 -1.71186,1.61564 -0.07661,0.02132 -0.702849,0.03873 -1.39777,0.03885 l -1.258984,2.22e-4 v 2.829844 c 0,2.809685 -5.91e-4,2.830595 -0.08281,2.935117 -0.09327,0.118576 -0.274022,0.223425 -0.381147,0.221095 -0.03925,-8.52e-4 -0.129003,-0.02661 -0.199453,-0.05724 z M 26.032218,9.4969021 V 5.9876084 h -3.52912 -3.52912 v 3.5092937 3.5092939 h 3.52912 3.52912 z m 2.973978,-2.497558 V 3.668489 l -1.011153,1.0105692 -1.011152,1.0105693 v 3.3308549 3.3308546 l 1.011152,-1.010569 1.011153,-1.010569 z M 27.320942,4.0049566 28.351349,2.9739777 h -3.330283 -3.330283 l -1.001526,1.0009475 c -0.550838,0.5505212 -1.001525,1.0144617 -1.001525,1.030979 0,0.016517 1.485631,0.030031 3.301401,0.030031 h 3.301402 z"
     id="path312" /><path
     style="fill:#3c6eb4;stroke-width:0.039653"
     d="M 18.255179,29.910931 C 18.01453,29.761579 18.022305,29.848585 18.022305,27.30491 v -2.323497 h -2.79946 c -3.069082,0 -2.977761,0.0069 -3.120498,-0.234764 -0.08372,-0.141734 -0.08662,-0.327284 -0.0075,-0.480289 0.126611,-0.244839 0.01859,-0.23662 3.110123,-0.23662 h 2.817335 v -1.356978 -1.356978 l 1.596035,-1.599812 c 0.877819,-0.879897 1.629422,-1.618253 1.670229,-1.640792 0.206781,-0.114209 0.533129,0.006 0.642609,0.236722 0.136994,0.288693 0.116447,0.317259 -1.125098,1.564182 l -1.135108,1.140025 h 3.327739 3.327739 l 1.012735,-1.010939 1.012736,-1.010939 -1.447336,-2.75e-4 c -1.299307,-2.47e-4 -1.461242,-0.0074 -1.583303,-0.06961 -0.362635,-0.184912 -0.390108,-0.611596 -0.05358,-0.8321 0.09863,-0.06463 0.268325,-0.06995 2.231674,-0.06995 2.341086,0 2.239966,-0.01036 2.40837,0.246624 0.06549,0.09993 0.07062,0.364187 0.08059,4.146141 0.0069,2.609219 -0.0034,4.09101 -0.02909,4.185155 -0.032,0.117366 -0.34715,0.453182 -1.618395,1.724515 -0.868262,0.868322 -1.604613,1.595186 -1.636337,1.615254 -0.03418,0.02162 -1.746017,0.0363 -4.201421,0.03604 -3.761201,-4.09e-4 -4.15336,-0.0064 -4.247919,-0.0651 z m 7.777039,-4.414029 v -3.52912 h -3.52912 -3.52912 v 3.52912 3.52912 h 3.52912 3.52912 z m 2.973764,-2.517676 -2.13e-4,-3.331147 -1.010939,1.012736 -1.010939,1.012735 v 3.328981 3.32898 l 1.011152,-1.010569 1.011153,-1.010569 -1.98e-4,-3.331147 z"
     id="path314" /><path
     style="fill:#294172;stroke-width:0.039653"
     d="m 2.2838721,29.927544 c -0.052421,-0.02694 -0.132718,-0.09936 -0.1784387,-0.160925 -0.082931,-0.111677 -0.083156,-0.121484 -0.094817,-4.123915 -0.00643,-2.206585 -6.246e-4,-4.09227 0.012898,-4.190412 0.023754,-0.172395 0.077194,-0.231295 1.5779837,-1.739214 1.6544666,-1.662327 1.7513615,-1.742611 2.0152328,-1.669752 0.2089027,0.05768 0.319381,0.198649 0.3422557,0.43671 l 0.019465,0.202575 -1.1642881,1.166749 -1.1642882,1.166749 h 3.3302488 3.3302489 l 1.010569,-1.011152 1.010569,-1.011153 -1.427218,-0.0022 c -1.5743248,-0.0025 -1.6446645,-0.01156 -1.7926346,-0.231631 -0.1529025,-0.227408 -0.096064,-0.50548 0.1353858,-0.662349 0.1056987,-0.07164 0.2146712,-0.07528 2.2523358,-0.07528 2.037666,0 2.146638,0.0036 2.252337,0.07528 0.230363,0.156132 0.225978,0.109507 0.225978,2.403034 0,2.278788 0.0025,2.250819 -0.214669,2.39312 -0.126091,0.08262 -0.414456,0.08451 -0.530142,0.0035 -0.202139,-0.141584 -0.206862,-0.181988 -0.206862,-1.769811 v -1.478759 l -1.030979,1.030407 -1.030979,1.030407 v 3.301402 c 0,1.81577 0.0135,3.301401 0.03001,3.301401 0.0165,0 0.529514,-0.500072 1.140025,-1.111272 1.210913,-1.212278 1.262363,-1.250276 1.537327,-1.135389 0.262716,0.10977 0.38492,0.444644 0.241446,0.661629 -0.106221,0.160645 -3.078386,3.13179 -3.194666,3.193569 -0.09105,0.04838 -0.7230688,0.0568 -4.223048,0.05631 -3.1877544,-4.52e-4 -4.1374656,-0.01163 -4.2112817,-0.04957 z m 7.7285199,-4.430642 v -3.52912 H 6.5030979 2.9938042 v 3.52912 3.52912 h 3.5092937 3.5092941 z"
     id="path316" /><path
     style="fill:#294172;stroke-width:0.039653"
     d="M 7.2523682,19.872439 C 7.1713102,19.821483 7.1204215,19.750807 7.1033584,19.66549 7.0891059,19.594229 7.0657313,18.289784 7.0514141,16.766723 l -0.026031,-2.769201 -0.1025309,-0.0044 C 6.8664609,13.990666 5.8121437,13.977208 4.5799257,13.963192 2.2119359,13.936256 2.2199864,13.936956 2.1124329,13.748781 2.0726571,13.67919 2.059597,12.784567 2.0508202,9.5282831 L 2.0396826,5.3960952 2.3133101,5.087143 C 2.4638052,4.9172193 3.203816,4.1670384 3.9577786,3.4200743 l 1.370841,-1.3581164 h 4.1779737 4.1779737 l 0.126737,0.1307601 0.126738,0.1307601 V 4.4978252 6.6721725 L 13.796433,6.8057267 C 13.60405,6.9871675 13.40458,6.9907097 13.205841,6.8162145 L 13.065675,6.6931478 V 5.9700507 c 0,-1.0640847 -0.04697,-2.2823184 -0.088,-2.2823184 -0.01968,0 -0.480789,0.4400199 -1.024695,0.9778219 L 10.96406,5.643376 v 3.3709677 3.3709673 l 1.159852,-1.150244 c 0.738094,-0.731981 1.1959,-1.15712 1.258986,-1.169153 0.283384,-0.05405 0.555053,0.16861 0.555259,0.455096 1.19e-4,0.165156 -0.003,0.16859 -1.576208,1.734918 -0.86698,0.863189 -1.620937,1.598128 -1.67546,1.633199 -0.08337,0.05363 -0.305572,0.06826 -1.3977693,0.09206 l -1.298637,0.0283 -0.00396,1.451264 c -0.00218,0.798195 -0.015561,2.079867 -0.02974,2.84816 l -0.025779,1.396896 -0.1043787,0.104351 c -0.141231,0.141193 -0.4031163,0.169614 -0.5738603,0.06228 z M 10.012392,9.4969021 V 5.9876084 H 6.5030979 2.9938042 V 9.4969021 13.006196 H 6.5030979 10.012392 Z M 11.334446,4.047016 c 0.537802,-0.5439057 0.977822,-1.0078462 0.977822,-1.0309789 0,-0.029309 -1.006831,-0.042059 -3.321228,-0.042059 H 5.6698122 L 4.6394052,4.004957 3.6089982,5.035936 h 3.373813 3.3738128 z"
     id="path387" /><path
     style="fill:#294172;stroke-width:0.039653"
     d="m 18.262239,29.868588 c -0.09102,-0.04614 -0.147224,-0.109127 -0.16802,-0.188291 -0.01719,-0.06543 -0.04328,-1.146541 -0.05799,-2.402475 l -0.02674,-2.283517 -2.759388,-0.0266 c -1.699468,-0.01638 -2.816482,-0.04242 -2.908024,-0.06777 -0.267198,-0.07401 -0.365662,-0.474294 -0.172055,-0.699454 l 0.09567,-0.111257 1.123664,-0.02569 c 0.618016,-0.01413 1.913256,-0.02751 2.878312,-0.02974 l 1.754647,-0.004 v -1.338469 -1.338469 l 1.635688,-1.631694 c 0.899628,-0.897431 1.676116,-1.643623 1.725529,-1.658204 0.118126,-0.03486 0.333663,0.03858 0.437002,0.148904 0.14008,0.149543 0.168234,0.275184 0.09597,0.42828 -0.03521,0.07459 -0.56325,0.639714 -1.173423,1.255823 l -1.109406,1.120198 h 3.368094 3.368094 l 1.004086,-1.004665 1.004086,-1.004665 -1.47685,-0.02649 c -1.645779,-0.02952 -1.646243,-0.0296 -1.797079,-0.307833 -0.09251,-0.170642 -0.06699,-0.302888 0.09299,-0.481933 l 0.114881,-0.128566 h 2.134597 c 2.307706,0 2.329267,0.0019 2.436764,0.210858 0.04525,0.08798 0.05664,0.814407 0.06586,4.202595 l 0.01115,4.096228 -0.08702,0.12682 c -0.04786,0.06975 -0.783963,0.827192 -1.635783,1.683201 l -1.548763,1.556382 -4.144885,-7.9e-5 c -3.867451,-4e-5 -4.154041,-0.0047 -4.281656,-0.06939 z m 7.769979,-4.371686 v -3.52912 h -3.52912 -3.52912 v 3.52912 3.52912 h 3.52912 3.52912 z m 2.973978,-2.517384 v -3.370509 l -1.011153,1.01057 -1.011152,1.010569 v 3.370508 3.370508 l 1.011152,-1.010569 1.011153,-1.010569 z"
     id="path389" /><path
     style="fill:#294172;stroke-width:0.039653"
     d="m 23.26543,19.866004 c -0.07142,-0.04355 -0.147831,-0.126444 -0.169796,-0.184215 -0.02452,-0.0645 -0.0496,-1.181622 -0.06497,-2.894654 l -0.02503,-2.789613 -1.272335,-0.0036 c -0.699784,-0.002 -1.758332,-0.01552 -2.352328,-0.03009 l -1.079994,-0.02648 -0.109597,-0.109547 -0.109598,-0.109547 -0.02487,-2.328765 c -0.01368,-1.280821 -0.02706,-2.3398432 -0.02974,-2.3533831 -0.0027,-0.01354 -1.258404,-0.037298 -2.790498,-0.052796 -3.120456,-0.031565 -2.994084,-0.01901 -3.137033,-0.3116669 -0.06629,-0.1357046 -0.06817,-0.1660531 -0.01842,-0.2967673 0.03048,-0.080082 0.111072,-0.1831098 0.179093,-0.2289495 0.118465,-0.079834 0.187749,-0.084453 1.644193,-0.10962 0.836284,-0.014451 2.104904,-0.0263 2.819154,-0.026331 l 1.298637,-5.63e-5 V 7.5008174 c 0,-0.2800027 0.01152,-0.8911551 0.02559,-1.3581164 l 0.0256,-0.8490207 1.50903,-1.5168686 c 0.829967,-0.8342776 1.578333,-1.5648949 1.663036,-1.6235939 l 0.154005,-0.1067254 4.011493,0.00267 c 2.206322,0.00147 4.090007,0.018518 4.185967,0.037893 0.11972,0.024172 0.200605,0.070223 0.257745,0.1467417 0.08316,0.1113707 0.08329,0.1167926 0.09442,4.2122931 0.0102,3.7516658 0.0056,4.1117858 -0.0545,4.2300728 -0.06908,0.136041 -3.017548,3.108289 -3.18837,3.214082 -0.08161,0.05054 -0.332158,0.06642 -1.417596,0.08985 l -1.318464,0.02846 v 1.455171 c 0,0.800344 -0.01166,2.078161 -0.02591,2.839593 l -0.02591,1.384422 -0.135526,0.128873 c -0.16047,0.152593 -0.322813,0.16809 -0.517484,0.0494 z M 26.032218,9.4969021 V 5.9876084 h -3.52912 -3.52912 v 3.5092937 3.5092939 h 3.52912 3.52912 z m 2.973978,-2.497558 V 3.628836 l -1.011153,1.0105692 -1.011152,1.0105692 v 3.370508 3.3705076 l 1.011152,-1.010569 1.011153,-1.010569 z M 27.360595,4.0049566 28.391002,2.9739777 h -3.373813 -3.373813 l -0.977822,0.9889195 c -0.537802,0.5439058 -0.977822,1.0078463 -0.977822,1.0309789 0,0.029309 1.006831,0.04206 3.321228,0.04206 h 3.321228 z"
     id="path391" /></svg>
