<svg xmlns="http://www.w3.org/2000/svg" xmlns:xlink="http://www.w3.org/1999/xlink" width="500" zoomAndPan="magnify" viewBox="0 0 375 374.999991" height="500" preserveAspectRatio="xMidYMid meet" version="1.0"><defs><g/><clipPath id="id1"><path d="M 1 65.382812 L 259 65.382812 L 259 309.882812 L 1 309.882812 Z M 1 65.382812 " clip-rule="nonzero"/></clipPath><clipPath id="id2"><path d="M 1.5625 221.566406 C 9.332031 160.972656 90.625 58.027344 151.191406 65.800781 C 211.761719 73.574219 287.445312 235.171875 246.796875 189.582031 C 227.921875 168.417969 139.210938 -34.089844 123.058594 285.222656 C 119.972656 346.230469 -6.203125 282.160156 1.566406 221.566406 Z M 1.5625 221.566406 " clip-rule="nonzero"/></clipPath></defs><g clip-path="url(#id1)"><g clip-path="url(#id2)"><path fill="#ffffff" d="M 0 65.382812 L 0 309.882812 L 259.5 309.882812 L 259.5 65.382812 Z M 0 65.382812 " fill-opacity="1" fill-rule="nonzero"/></g></g><g fill="#000000" fill-opacity="1"><g transform="translate(143.643468, 291.807314)"><g><path d="M 17.265625 -12.84375 C 17.265625 -10.375 17.65625 -8.519531 18.4375 -7.28125 C 19.226562 -6.050781 20.46875 -5.4375 22.15625 -5.4375 C 23.394531 -5.4375 24.507812 -5.695312 25.5 -6.21875 C 26.5 -6.738281 27.359375 -7.472656 28.078125 -8.421875 C 28.796875 -9.378906 29.34375 -10.535156 29.71875 -11.890625 C 30.101562 -13.253906 30.296875 -14.78125 30.296875 -16.46875 L 30.296875 -22.953125 L 26.421875 -22.703125 C 24.703125 -22.617188 23.253906 -22.34375 22.078125 -21.875 C 20.898438 -21.414062 19.957031 -20.78125 19.25 -19.96875 C 18.550781 -19.15625 18.046875 -18.15625 17.734375 -16.96875 C 17.421875 -15.789062 17.265625 -14.414062 17.265625 -12.84375 Z M 24.9375 -42.09375 C 23.84375 -42.09375 22.921875 -41.859375 22.171875 -41.390625 C 21.429688 -40.929688 20.835938 -40.285156 20.390625 -39.453125 C 19.941406 -38.628906 19.625 -37.644531 19.4375 -36.5 C 19.257812 -35.363281 19.171875 -34.125 19.171875 -32.78125 C 15.296875 -32.78125 12.378906 -33.210938 10.421875 -34.078125 C 8.472656 -34.953125 7.5 -36.441406 7.5 -38.546875 C 7.5 -40.117188 7.96875 -41.46875 8.90625 -42.59375 C 9.851562 -43.71875 11.132812 -44.628906 12.75 -45.328125 C 14.363281 -46.035156 16.242188 -46.550781 18.390625 -46.875 C 20.535156 -47.195312 22.832031 -47.359375 25.28125 -47.359375 C 28.3125 -47.359375 30.957031 -47.097656 33.21875 -46.578125 C 35.476562 -46.054688 37.359375 -45.21875 38.859375 -44.0625 C 40.367188 -42.914062 41.5 -41.40625 42.25 -39.53125 C 43.007812 -37.664062 43.390625 -35.382812 43.390625 -32.6875 L 43.390625 -10.703125 C 43.390625 -9.523438 43.476562 -8.539062 43.65625 -7.75 C 43.84375 -6.96875 44.132812 -6.34375 44.53125 -5.875 C 44.925781 -5.414062 45.457031 -5.085938 46.125 -4.890625 C 46.800781 -4.691406 47.617188 -4.59375 48.578125 -4.59375 L 48.90625 -4.59375 L 48.90625 0 L 32.859375 0 L 31.046875 -5.9375 L 30.296875 -5.9375 C 29.335938 -4.789062 28.4375 -3.785156 27.59375 -2.921875 C 26.75 -2.066406 25.847656 -1.359375 24.890625 -0.796875 C 23.941406 -0.234375 22.867188 0.175781 21.671875 0.4375 C 20.484375 0.707031 19.070312 0.84375 17.4375 0.84375 C 15.53125 0.84375 13.753906 0.5625 12.109375 0 C 10.460938 -0.5625 9.03125 -1.425781 7.8125 -2.59375 C 6.59375 -3.757812 5.628906 -5.21875 4.921875 -6.96875 C 4.222656 -8.726562 3.875 -10.800781 3.875 -13.1875 C 3.875 -17.875 5.484375 -21.34375 8.703125 -23.59375 C 11.921875 -25.84375 16.757812 -27.0625 23.21875 -27.25 L 30.296875 -27.515625 L 30.296875 -32.265625 C 30.296875 -33.703125 30.238281 -35.023438 30.125 -36.234375 C 30.007812 -37.441406 29.769531 -38.476562 29.40625 -39.34375 C 29.039062 -40.21875 28.5 -40.894531 27.78125 -41.375 C 27.0625 -41.851562 26.113281 -42.09375 24.9375 -42.09375 Z M 24.9375 -42.09375 "/></g></g></g><g fill="#000000" fill-opacity="1"><g transform="translate(195.338727, 291.807314)"><g><path d="M 2.484375 -4.59375 C 3.128906 -4.59375 3.8125 -4.65625 4.53125 -4.78125 C 5.25 -4.90625 5.910156 -5.164062 6.515625 -5.5625 C 7.117188 -5.957031 7.625 -6.519531 8.03125 -7.25 C 8.4375 -7.976562 8.640625 -8.960938 8.640625 -10.203125 L 8.640625 -55.734375 C 8.640625 -56.890625 8.4375 -57.8125 8.03125 -58.5 C 7.625 -59.1875 7.109375 -59.71875 6.484375 -60.09375 C 5.867188 -60.476562 5.203125 -60.722656 4.484375 -60.828125 C 3.765625 -60.941406 3.097656 -61 2.484375 -61 L 1.46875 -61 L 1.46875 -65.546875 L 21.734375 -65.546875 L 21.734375 -10.203125 C 21.734375 -8.960938 21.9375 -7.976562 22.34375 -7.25 C 22.75 -6.519531 23.253906 -5.957031 23.859375 -5.5625 C 24.460938 -5.164062 25.128906 -4.90625 25.859375 -4.78125 C 26.597656 -4.65625 27.273438 -4.59375 27.890625 -4.59375 L 28.90625 -4.59375 L 28.90625 0 L 1.46875 0 L 1.46875 -4.59375 Z M 2.484375 -4.59375 "/></g></g></g><g fill="#000000" fill-opacity="1"><g transform="translate(225.715488, 291.807314)"><g><path d="M 47.90625 -44.609375 C 47.90625 -43.960938 47.804688 -43.335938 47.609375 -42.734375 C 47.410156 -42.128906 47.078125 -41.601562 46.609375 -41.15625 C 46.148438 -40.707031 45.519531 -40.347656 44.71875 -40.078125 C 43.914062 -39.816406 42.925781 -39.6875 41.75 -39.6875 C 41.75 -40.28125 41.65625 -40.800781 41.46875 -41.25 C 41.289062 -41.695312 41.046875 -42.070312 40.734375 -42.375 C 40.429688 -42.6875 40.082031 -42.921875 39.6875 -43.078125 C 39.289062 -43.234375 38.882812 -43.3125 38.46875 -43.3125 C 37.988281 -43.3125 37.472656 -43.210938 36.921875 -43.015625 C 36.378906 -42.816406 35.953125 -42.601562 35.640625 -42.375 C 36.234375 -41.726562 36.78125 -40.988281 37.28125 -40.15625 C 37.789062 -39.332031 38.234375 -38.441406 38.609375 -37.484375 C 38.992188 -36.535156 39.296875 -35.546875 39.515625 -34.515625 C 39.742188 -33.492188 39.859375 -32.453125 39.859375 -31.390625 C 39.859375 -29.222656 39.515625 -27.21875 38.828125 -25.375 C 38.140625 -23.539062 37.078125 -21.945312 35.640625 -20.59375 C 34.210938 -19.25 32.398438 -18.195312 30.203125 -17.4375 C 28.015625 -16.675781 25.414062 -16.296875 22.40625 -16.296875 C 22.101562 -16.296875 21.710938 -16.300781 21.234375 -16.3125 C 20.753906 -16.332031 20.273438 -16.347656 19.796875 -16.359375 C 19.316406 -16.378906 18.859375 -16.410156 18.421875 -16.453125 C 17.992188 -16.492188 17.664062 -16.53125 17.4375 -16.5625 C 17.070312 -16.363281 16.695312 -16.113281 16.3125 -15.8125 C 15.9375 -15.519531 15.601562 -15.191406 15.3125 -14.828125 C 15.019531 -14.460938 14.78125 -14.054688 14.59375 -13.609375 C 14.414062 -13.160156 14.328125 -12.679688 14.328125 -12.171875 C 14.328125 -11.222656 14.695312 -10.519531 15.4375 -10.0625 C 16.1875 -9.613281 17.164062 -9.390625 18.375 -9.390625 L 28.8125 -9.390625 C 31.675781 -9.390625 34.144531 -9.085938 36.21875 -8.484375 C 38.300781 -7.878906 40.023438 -7.015625 41.390625 -5.890625 C 42.753906 -4.773438 43.757812 -3.394531 44.40625 -1.75 C 45.050781 -0.101562 45.375 1.742188 45.375 3.796875 C 45.375 6.460938 44.867188 8.84375 43.859375 10.9375 C 42.847656 13.03125 41.304688 14.796875 39.234375 16.234375 C 37.171875 17.679688 34.570312 18.789062 31.4375 19.5625 C 28.3125 20.34375 24.613281 20.734375 20.34375 20.734375 C 13.550781 20.734375 8.488281 19.710938 5.15625 17.671875 C 1.832031 15.640625 0.171875 12.65625 0.171875 8.71875 C 0.171875 5.632812 1.164062 3.269531 3.15625 1.625 C 5.15625 -0.0195312 8.050781 -1 11.84375 -1.3125 C 11.050781 -1.613281 10.273438 -1.988281 9.515625 -2.4375 C 8.765625 -2.894531 8.09375 -3.4375 7.5 -4.0625 C 6.90625 -4.695312 6.425781 -5.421875 6.0625 -6.234375 C 5.695312 -7.046875 5.515625 -7.957031 5.515625 -8.96875 C 5.515625 -9.925781 5.703125 -10.8125 6.078125 -11.625 C 6.460938 -12.4375 6.988281 -13.210938 7.65625 -13.953125 C 8.332031 -14.703125 9.140625 -15.40625 10.078125 -16.0625 C 11.023438 -16.726562 12.0625 -17.382812 13.1875 -18.03125 C 11.925781 -18.476562 10.753906 -19.101562 9.671875 -19.90625 C 8.585938 -20.707031 7.660156 -21.671875 6.890625 -22.796875 C 6.117188 -23.921875 5.503906 -25.195312 5.046875 -26.625 C 4.597656 -28.0625 4.375 -29.648438 4.375 -31.390625 C 4.375 -36.441406 5.84375 -40.363281 8.78125 -43.15625 C 11.71875 -45.957031 16.257812 -47.359375 22.40625 -47.359375 C 24.457031 -47.359375 26.359375 -47.097656 28.109375 -46.578125 C 29.867188 -46.054688 31.394531 -45.429688 32.6875 -44.703125 C 33.164062 -45.203125 33.691406 -45.738281 34.265625 -46.3125 C 34.847656 -46.894531 35.503906 -47.425781 36.234375 -47.90625 C 36.960938 -48.382812 37.773438 -48.773438 38.671875 -49.078125 C 39.566406 -49.390625 40.566406 -49.546875 41.671875 -49.546875 C 42.703125 -49.546875 43.601562 -49.410156 44.375 -49.140625 C 45.15625 -48.878906 45.800781 -48.519531 46.3125 -48.0625 C 46.832031 -47.613281 47.226562 -47.09375 47.5 -46.5 C 47.769531 -45.914062 47.90625 -45.285156 47.90625 -44.609375 Z M 10.359375 8.546875 C 10.359375 10.941406 11.222656 12.707031 12.953125 13.84375 C 14.679688 14.976562 17.203125 15.546875 20.515625 15.546875 C 25.566406 15.546875 29.242188 14.816406 31.546875 13.359375 C 33.859375 11.898438 35.015625 9.75 35.015625 6.90625 C 35.015625 5.082031 34.4375 3.804688 33.28125 3.078125 C 32.132812 2.347656 30.394531 1.984375 28.0625 1.984375 L 18.03125 1.984375 C 17.15625 1.984375 16.269531 2.054688 15.375 2.203125 C 14.476562 2.359375 13.65625 2.675781 12.90625 3.15625 C 12.164062 3.632812 11.554688 4.300781 11.078125 5.15625 C 10.597656 6.019531 10.359375 7.148438 10.359375 8.546875 Z M 16.140625 -31.390625 C 16.140625 -29.867188 16.242188 -28.5 16.453125 -27.28125 C 16.660156 -26.0625 17.003906 -25.015625 17.484375 -24.140625 C 17.960938 -23.265625 18.578125 -22.585938 19.328125 -22.109375 C 20.085938 -21.640625 21.03125 -21.40625 22.15625 -21.40625 C 23.3125 -21.40625 24.265625 -21.632812 25.015625 -22.09375 C 25.773438 -22.5625 26.378906 -23.238281 26.828125 -24.125 C 27.285156 -25.007812 27.601562 -26.078125 27.78125 -27.328125 C 27.96875 -28.578125 28.0625 -29.972656 28.0625 -31.515625 C 28.0625 -33.117188 27.960938 -34.570312 27.765625 -35.875 C 27.566406 -37.175781 27.234375 -38.289062 26.765625 -39.21875 C 26.304688 -40.144531 25.695312 -40.867188 24.9375 -41.390625 C 24.175781 -41.910156 23.222656 -42.171875 22.078125 -42.171875 C 20.953125 -42.171875 20.007812 -41.90625 19.25 -41.375 C 18.488281 -40.84375 17.875 -40.097656 17.40625 -39.140625 C 16.945312 -38.179688 16.617188 -37.039062 16.421875 -35.71875 C 16.234375 -34.40625 16.140625 -32.960938 16.140625 -31.390625 Z M 16.140625 -31.390625 "/></g></g></g><g fill="#000000" fill-opacity="1"><g transform="translate(274.040234, 291.807314)"><g><path d="M 17.265625 -12.84375 C 17.265625 -10.375 17.65625 -8.519531 18.4375 -7.28125 C 19.226562 -6.050781 20.46875 -5.4375 22.15625 -5.4375 C 23.394531 -5.4375 24.507812 -5.695312 25.5 -6.21875 C 26.5 -6.738281 27.359375 -7.472656 28.078125 -8.421875 C 28.796875 -9.378906 29.34375 -10.535156 29.71875 -11.890625 C 30.101562 -13.253906 30.296875 -14.78125 30.296875 -16.46875 L 30.296875 -22.953125 L 26.421875 -22.703125 C 24.703125 -22.617188 23.253906 -22.34375 22.078125 -21.875 C 20.898438 -21.414062 19.957031 -20.78125 19.25 -19.96875 C 18.550781 -19.15625 18.046875 -18.15625 17.734375 -16.96875 C 17.421875 -15.789062 17.265625 -14.414062 17.265625 -12.84375 Z M 24.9375 -42.09375 C 23.84375 -42.09375 22.921875 -41.859375 22.171875 -41.390625 C 21.429688 -40.929688 20.835938 -40.285156 20.390625 -39.453125 C 19.941406 -38.628906 19.625 -37.644531 19.4375 -36.5 C 19.257812 -35.363281 19.171875 -34.125 19.171875 -32.78125 C 15.296875 -32.78125 12.378906 -33.210938 10.421875 -34.078125 C 8.472656 -34.953125 7.5 -36.441406 7.5 -38.546875 C 7.5 -40.117188 7.96875 -41.46875 8.90625 -42.59375 C 9.851562 -43.71875 11.132812 -44.628906 12.75 -45.328125 C 14.363281 -46.035156 16.242188 -46.550781 18.390625 -46.875 C 20.535156 -47.195312 22.832031 -47.359375 25.28125 -47.359375 C 28.3125 -47.359375 30.957031 -47.097656 33.21875 -46.578125 C 35.476562 -46.054688 37.359375 -45.21875 38.859375 -44.0625 C 40.367188 -42.914062 41.5 -41.40625 42.25 -39.53125 C 43.007812 -37.664062 43.390625 -35.382812 43.390625 -32.6875 L 43.390625 -10.703125 C 43.390625 -9.523438 43.476562 -8.539062 43.65625 -7.75 C 43.84375 -6.96875 44.132812 -6.34375 44.53125 -5.875 C 44.925781 -5.414062 45.457031 -5.085938 46.125 -4.890625 C 46.800781 -4.691406 47.617188 -4.59375 48.578125 -4.59375 L 48.90625 -4.59375 L 48.90625 0 L 32.859375 0 L 31.046875 -5.9375 L 30.296875 -5.9375 C 29.335938 -4.789062 28.4375 -3.785156 27.59375 -2.921875 C 26.75 -2.066406 25.847656 -1.359375 24.890625 -0.796875 C 23.941406 -0.234375 22.867188 0.175781 21.671875 0.4375 C 20.484375 0.707031 19.070312 0.84375 17.4375 0.84375 C 15.53125 0.84375 13.753906 0.5625 12.109375 0 C 10.460938 -0.5625 9.03125 -1.425781 7.8125 -2.59375 C 6.59375 -3.757812 5.628906 -5.21875 4.921875 -6.96875 C 4.222656 -8.726562 3.875 -10.800781 3.875 -13.1875 C 3.875 -17.875 5.484375 -21.34375 8.703125 -23.59375 C 11.921875 -25.84375 16.757812 -27.0625 23.21875 -27.25 L 30.296875 -27.515625 L 30.296875 -32.265625 C 30.296875 -33.703125 30.238281 -35.023438 30.125 -36.234375 C 30.007812 -37.441406 29.769531 -38.476562 29.40625 -39.34375 C 29.039062 -40.21875 28.5 -40.894531 27.78125 -41.375 C 27.0625 -41.851562 26.113281 -42.09375 24.9375 -42.09375 Z M 24.9375 -42.09375 "/></g></g></g><g fill="#000000" fill-opacity="1"><g transform="translate(325.735493, 291.807314)"><g><path d="M 25.609375 -41.75 C 23.191406 -41.75 21.273438 -40.554688 19.859375 -38.171875 C 18.441406 -35.785156 17.664062 -32.285156 17.53125 -27.671875 L 32.4375 -27.671875 C 32.4375 -29.867188 32.3125 -31.835938 32.0625 -33.578125 C 31.8125 -35.316406 31.410156 -36.789062 30.859375 -38 C 30.304688 -39.207031 29.601562 -40.132812 28.75 -40.78125 C 27.894531 -41.425781 26.847656 -41.75 25.609375 -41.75 Z M 26.421875 0.84375 C 22.765625 0.84375 19.535156 0.3125 16.734375 -0.75 C 13.941406 -1.820312 11.601562 -3.367188 9.71875 -5.390625 C 7.84375 -7.410156 6.425781 -9.890625 5.46875 -12.828125 C 4.519531 -15.765625 4.046875 -19.113281 4.046875 -22.875 C 4.046875 -26.914062 4.519531 -30.46875 5.46875 -33.53125 C 6.425781 -36.59375 7.816406 -39.148438 9.640625 -41.203125 C 11.472656 -43.253906 13.710938 -44.789062 16.359375 -45.8125 C 19.015625 -46.84375 22.046875 -47.359375 25.453125 -47.359375 C 28.566406 -47.359375 31.375 -46.914062 33.875 -46.03125 C 36.375 -45.144531 38.492188 -43.828125 40.234375 -42.078125 C 41.972656 -40.335938 43.304688 -38.175781 44.234375 -35.59375 C 45.160156 -33.007812 45.625 -30.003906 45.625 -26.578125 L 45.625 -22.15625 L 17.359375 -22.15625 C 17.441406 -19.269531 17.753906 -16.785156 18.296875 -14.703125 C 18.847656 -12.617188 19.609375 -10.90625 20.578125 -9.5625 C 21.546875 -8.21875 22.722656 -7.222656 24.109375 -6.578125 C 25.503906 -5.929688 27.101562 -5.609375 28.90625 -5.609375 C 30.394531 -5.609375 31.769531 -5.78125 33.03125 -6.125 C 34.289062 -6.476562 35.429688 -6.96875 36.453125 -7.59375 C 37.484375 -8.226562 38.382812 -8.972656 39.15625 -9.828125 C 39.925781 -10.691406 40.566406 -11.613281 41.078125 -12.59375 C 42.617188 -11.75 43.390625 -10.347656 43.390625 -8.390625 C 43.390625 -7.148438 43.050781 -5.972656 42.375 -4.859375 C 41.707031 -3.753906 40.671875 -2.78125 39.265625 -1.9375 C 37.859375 -1.09375 36.09375 -0.421875 33.96875 0.078125 C 31.851562 0.585938 29.335938 0.84375 26.421875 0.84375 Z M 26.421875 0.84375 "/></g></g></g></svg>