<?xml version="1.0" encoding="utf-8"?>
<!-- Generator: Adobe Illustrator 26.0.3, SVG Export Plug-In . SVG Version: 6.00 Build 0)  -->
<svg version="1.1" id="Calque_2_00000042703654311965856120000004783707530991359931_"
	 xmlns="http://www.w3.org/2000/svg" xmlns:xlink="http://www.w3.org/1999/xlink" x="0px" y="0px" viewBox="0 0 755.6 206"
	 style="enable-background:new 0 0 755.6 206;" xml:space="preserve">
<style type="text/css">
	.st0{fill:url(#SVGID_1_);}
	.st1{fill:#0FA382;}
	.st2{fill:#2C617E;}
</style>
<linearGradient id="SVGID_1_" gradientUnits="userSpaceOnUse" x1="107.91" y1="136.57" x2="107.91" y2="-58.72" gradientTransform="matrix(1 0 0 -1 -19.49 142.23)">
	<stop  offset="0" style="stop-color:#0FA382"/>
	<stop  offset="1" style="stop-color:#2C617E"/>
</linearGradient>
<path class="st0" d="M81.9,5v32.5c0,2.8-2.2,5-5,5H44.3c-2.8,0-5-2.2-5-5V5c0-2.8,2.2-5,5-5h32.5C79.6,0,81.9,2.2,81.9,5z
	 M76.9,163.5H44.3c-2.8,0-5,2.2-5,5V201c0,2.8,2.2,5,5,5h32.5c2.8,0,5-2.2,5-5v-32.6C81.9,165.7,79.6,163.5,76.9,163.5L76.9,163.5z
	 M140.1,86.1h31.7c2.8,0,5-2.2,5-5V48.6c0-2.8-2.2-5-5-5h-26.1c-7.6,0-13.8-6.2-13.8-13.8v0V13.7l0,0V5c0-2.8-2.2-5-5-5H94.4
	c-2.8,0-5,2.2-5,5v32.5c0,2.8,2.2,5,5,5h26.2c7.6,0.1,13.7,6.2,13.7,13.8v17.2c0,7.6-6.2,13.8-13.8,13.8H99.9c-2.8,0-5,2.2-5,5v21.4
	c0,2.8,2.2,5,5,5h20.6c7.6,0,13.8,6.2,13.8,13.8l0,0v17.2c0,7.6-6.1,13.7-13.7,13.8H94.4c-2.8,0-5,2.2-5,5V201c0,2.8,2.2,5,5,5h32.5
	c2.8,0,5-2.2,5-5v-24.9c0-7.6,6.2-13.8,13.8-13.8h26.1c2.8,0,5-2.2,5-5v-32.5c0-2.8-2.2-5-5-5h-31.7c-7.6,0-13.8-6.2-13.8-13.8v-6.1
	C126.3,92.3,132.5,86.1,140.1,86.1L140.1,86.1z M74.6,87.3H39.4c-4.4,0-5.7-3.7-5.7-7.2V7.9c0-4.3-3.5-7.9-7.9-7.9c0,0,0,0,0,0h-18
	C3.5,0,0,3.5,0,7.9c0,0,0,0,0,0v190.2c0,4.3,3.5,7.9,7.9,7.9c0,0,0,0,0,0h18c4.3,0,7.9-3.5,7.9-7.9v-72.3c0-3.4,1.7-7.1,5.7-7.1
	h35.2c4,0,7.2-2,7.2-6V94.6C81.9,90.5,78.6,87.3,74.6,87.3z"/>
<path class="st1" d="M217.2,44c11.9,0,21.5,9.6,21.5,21.5c0,4.3-1.3,8.5-3.8,12.1c9.8,7.5,11.6,21.4,4.1,31.2
	c-4.2,5.5-10.8,8.7-17.7,8.7h-24.3V44H217.2z M216.5,73.1c4.7,0,8.5-3.8,8.5-8.5c0-4.6-3.9-8.4-8.5-8.3c0,0,0,0,0,0h-6.4V73
	L216.5,73.1z M221.1,105c4.9,0.2,9-3.7,9.2-8.6c0.2-4.9-3.7-9-8.6-9.2c-0.2,0-0.4,0-0.6,0h-10.7V105H221.1z"/>
<path class="st1" d="M271,102.8h27.4v14.6h-42.1V43.9H271V102.8z"/>
<path class="st1" d="M375.7,80.6c0,21.1-17.1,38.1-38.1,38.1c-21.1,0-38.1-17.1-38.1-38.1c0-21.1,17-38.1,38.1-38.1
	C358.6,42.5,375.7,59.6,375.7,80.6z M314.5,80.6c0,12.7,10.3,23,23,23s23-10.3,23-23s-10.3-23-23-23l0,0
	C324.8,57.6,314.5,67.9,314.5,80.6C314.5,80.6,314.5,80.6,314.5,80.6L314.5,80.6z"/>
<path class="st1" d="M408.7,83.8l-5.7,5.8v27.8h-14.7V43.9H403v23.7l21.5-23.7h19.9l-25.7,28.8l26.4,44.8h-17.5L408.7,83.8z"/>
<path class="st2" d="M201.9,154.1h9v4.8h-13.8v-24.1h4.8L201.9,154.1z"/>
<path class="st2" d="M214.4,141.7l-0.2-7.2h4.9l-2.1,7.2H214.4z"/>
<path class="st2" d="M220.6,139.6v-4.8h4.4v4.8H220.6z M220.6,158.9v-14.8h4.4v14.8H220.6z"/>
<path class="st2" d="M232,145.4c1.2-1.1,2.7-1.7,4.2-1.7c4,0,7.3,3.5,7.3,7.9v7.4h-4.2v-7.4c0.2-2-1.2-3.7-3.2-4
	c-2-0.2-3.7,1.2-4,3.2c0,0.3,0,0.5,0,0.8v7.4h-4.3v-14.8h3.5L232,145.4z"/>
<path class="st2" d="M251.6,158.9l-7.4-14.8h4.3l3.8,7.6l3.8-7.6h4.3l-7.4,14.8H251.6z"/>
<path class="st2" d="M273.9,156.6c-1.5,1.8-3.7,2.8-6,2.8c-4.4,0-7.9-3.5-7.9-7.9c0-4.4,3.5-7.9,7.9-7.9c4.3,0,7.9,3.5,7.9,7.9
	c0,0.5,0,0.9-0.1,1.4h-11c0.2,0.5,0.5,1,0.9,1.4c0.7,0.8,1.6,1.2,2.6,1.2c1,0,1.9-0.4,2.5-1.1L273.9,156.6z M271.7,150.2
	c-0.2-0.6-0.5-1.2-0.9-1.7c-0.7-0.7-1.6-1.2-2.6-1.2c-1,0-2,0.4-2.6,1.2c-0.4,0.5-0.8,1.1-1,1.7H271.7z"/>
<path class="st2" d="M279.8,153.9c2.2,2.5,5.5,2.6,5.5,0.7c0-1.1-1.1-1.4-2.2-1.8c-2.9-0.9-4.9-1.8-4.9-4.6s2.4-4.5,5.3-4.5
	c2.1-0.1,4.2,0.6,5.9,1.8l-2,3.1c-2.9-2.1-4.9-1.9-5.1-0.3c-0.2,1.1,1.5,1.3,3.2,1.9c2.1,0.6,4.1,2,4.1,4.6c0,2.4-2.5,4.6-5.5,4.6
	c-2.6,0.1-5.2-0.9-7.1-2.7L279.8,153.9z"/>
<path class="st2" d="M302.5,144.1v4h-3.4v10.8h-4.4v-10.8h-3.1v-4h3.1v-5.5h4.4v5.5L302.5,144.1z"/>
<path class="st2" d="M305.2,139.6v-4.8h4.4v4.8H305.2z M305.2,158.9v-14.8h4.4v14.8H305.2z"/>
<path class="st2" d="M314.5,153.9c2.2,2.5,5.5,2.6,5.5,0.7c0-1.1-1.1-1.4-2.2-1.8c-2.9-0.9-4.9-1.8-4.9-4.6s2.4-4.5,5.3-4.5
	c2.1-0.1,4.2,0.6,5.9,1.8l-2,3.1c-2.9-2.1-4.9-1.9-5.1-0.3c-0.2,1.1,1.5,1.3,3.2,1.9c2.1,0.6,4.1,2,4.1,4.6c0,2.4-2.4,4.6-5.5,4.6
	c-2.6,0.1-5.2-0.9-7.1-2.7L314.5,153.9z"/>
<path class="st2" d="M328.5,153.9c2.2,2.5,5.5,2.6,5.5,0.7c0-1.1-1.1-1.4-2.2-1.8c-2.9-0.9-4.9-1.8-4.9-4.6s2.4-4.5,5.3-4.5
	c2.1-0.1,4.2,0.6,5.9,1.8l-2,3.1c-2.9-2.1-4.9-1.9-5.1-0.3c-0.2,1.1,1.4,1.3,3.2,1.9c2.1,0.6,4.1,2,4.1,4.6c0,2.4-2.5,4.6-5.5,4.6
	c-2.6,0.1-5.2-0.9-7-2.7L328.5,153.9z"/>
<path class="st2" d="M353.2,156.6c-1.5,1.8-3.7,2.8-6,2.8c-4.4,0-7.9-3.5-7.9-7.9c0-4.4,3.5-7.9,7.9-7.9c4.3,0,7.9,3.5,7.9,7.9
	c0,0.5,0,0.9-0.1,1.4h-11c0.2,0.5,0.5,1,0.9,1.4c0.7,0.8,1.6,1.2,2.6,1.2c1,0,1.9-0.4,2.5-1.1L353.2,156.6z M350.9,150.2
	c-0.2-0.6-0.5-1.2-0.9-1.7c-0.7-0.7-1.6-1.2-2.6-1.2c-1,0-2,0.4-2.6,1.2c-0.4,0.5-0.7,1.1-0.9,1.7H350.9z"/>
<path class="st2" d="M362.3,145.2c1-0.9,2.4-1.5,3.8-1.6c2.1,0,4.1,1.1,5.2,2.9c1.1-1.8,3.1-2.9,5.2-2.9c3.7,0,6.7,3.5,6.7,7.9v7.4
	h-3.9v-7.4c0-2.1-1.3-4-3.3-4s-3.2,1.9-3.3,3.8v7.6h-3.9v-7.4c0-2.1-1.4-4-3.3-4c-1.6,0.1-2.9,1.3-3.2,2.9v8.5h-4.1v-14.8h3.3
	L362.3,145.2z"/>
<path class="st2" d="M399.5,156.6c-1.5,1.8-3.7,2.8-6,2.8c-4.4,0-7.9-3.5-7.9-7.9c0-4.4,3.5-7.9,7.9-7.9c4.4,0,7.9,3.5,7.9,7.9
	c0,0.5,0,0.9-0.1,1.4h-11.1c0.2,0.5,0.5,1,0.9,1.4c0.7,0.8,1.6,1.2,2.6,1.2c1,0,1.9-0.4,2.5-1.1L399.5,156.6z M397.3,150.2
	c-0.2-0.6-0.5-1.2-0.9-1.7c-0.7-0.7-1.6-1.2-2.6-1.2c-1,0-2,0.4-2.6,1.2c-0.4,0.5-0.7,1.1-0.9,1.7H397.3z"/>
<path class="st2" d="M407.5,145.4c1.2-1.1,2.7-1.7,4.2-1.7c4,0,7.3,3.5,7.3,7.9v7.4h-4.2v-7.4c0.2-2-1.2-3.7-3.2-4
	c-2-0.2-3.7,1.2-4,3.2c0,0.3,0,0.5,0,0.8v7.4h-4.3v-14.8h3.5L407.5,145.4z"/>
<path class="st2" d="M432,144.1v4h-3.4v10.8h-4.4v-10.8H421v-4h3.1v-5.5h4.4v5.5L432,144.1z"/>
<path class="st2" d="M445,139.6v-4.8h4.4v4.8H445z M445,158.9v-14.8h4.4v14.8H445z"/>
<path class="st2" d="M456.8,145.2c1-0.9,2.4-1.5,3.8-1.6c2.1,0,4.1,1.1,5.2,2.9c1.1-1.8,3.1-2.9,5.2-2.9c3.7,0,6.7,3.5,6.7,7.9v7.4
	h-3.9v-7.4c0-2.1-1.3-4-3.3-4s-3.2,1.9-3.3,3.8v7.6h-3.9v-7.4c0-2.1-1.4-4-3.3-4c-1.6,0.1-2.9,1.3-3.2,2.9v8.5h-4.1v-14.8h3.3
	L456.8,145.2z"/>
<path class="st2" d="M485.7,145.2c1-0.9,2.4-1.5,3.8-1.6c2.1,0,4.1,1.1,5.2,2.9c1.1-1.8,3.1-2.9,5.2-2.9c3.7,0,6.7,3.5,6.7,7.9v7.4
	h-3.8v-7.4c0-2.1-1.3-4-3.3-4s-3.2,1.9-3.3,3.8v7.6h-3.9v-7.4c0-2.1-1.4-4-3.3-4c-1.6,0.1-2.9,1.3-3.2,2.9v8.5h-4.1v-14.8h3.3
	L485.7,145.2z"/>
<path class="st2" d="M526,151.5c0.2,4.5-3.3,8.4-7.8,8.6s-8.4-3.3-8.6-7.8c-0.2-4.5,3.3-8.4,7.8-8.6c0.1,0,0.2,0,0.4,0
	C522.2,143.5,525.9,147,526,151.5C526,151.5,526,151.5,526,151.5z M521.7,151.5c0-1-0.4-2.1-1.1-2.8c-0.7-0.8-1.7-1.2-2.8-1.2
	c-1,0-2,0.4-2.7,1.2c-0.8,0.7-1.2,1.8-1.2,2.9c0,1.1,0.4,2.1,1.2,2.9c0.7,0.7,1.7,1.2,2.7,1.2c1,0,2-0.4,2.8-1.2
	C521.3,153.6,521.7,152.6,521.7,151.5L521.7,151.5z"/>
<path class="st2" d="M532.8,145.8c3.1-3,8.1-3,11.1,0.1c3,3.1,3,8.1-0.1,11.1c-3.1,3-7.9,3-11,0v1.8h-4.4v-25.6h4.4V145.8z
	 M541.6,151.5c0-1.1-0.4-2.1-1.1-2.9c-0.7-0.7-1.7-1.2-2.7-1.2c-1,0-2,0.4-2.8,1.2c-0.7,0.8-1.1,1.8-1.1,2.9c0,1.1,0.4,2.1,1.1,2.9
	c0.7,0.7,1.7,1.2,2.8,1.2c1,0,2-0.4,2.7-1.2C541.2,153.6,541.6,152.5,541.6,151.5z"/>
<path class="st2" d="M548.8,139.6v-4.8h4.4v4.8H548.8z M548.8,158.9v-14.8h4.4v14.8H548.8z"/>
<path class="st2" d="M556.7,158.9v-25.6h4.4v25.6H556.7z"/>
<path class="st2" d="M564.3,139.6v-4.8h4.4v4.8H564.3z M564.3,158.9v-14.8h4.4v14.8H564.3z"/>
<path class="st2" d="M584.8,156.6c-1.5,1.8-3.7,2.8-6,2.8c-4.4,0-7.9-3.5-7.9-7.9c0-4.4,3.5-7.9,7.9-7.9s7.9,3.5,7.9,7.9
	c0,0.5,0,0.9-0.1,1.4h-11c0.2,0.5,0.5,1,0.9,1.4c0.7,0.8,1.6,1.2,2.7,1.2c1,0,1.9-0.4,2.5-1.1L584.8,156.6z M582.6,150.2
	c-0.2-0.6-0.5-1.2-0.9-1.7c-0.7-0.7-1.6-1.2-2.6-1.2c-1,0-2,0.4-2.7,1.2c-0.4,0.5-0.7,1.1-0.9,1.7H582.6z"/>
<path class="st2" d="M592.9,145.8c1.3-1.4,3.1-2.2,5-2.1c0.9,0,1.7,0.1,2.5,0.4l-1.7,3.8c-1.9-0.9-4.3-0.1-5.2,1.8
	c-0.1,0.3-0.3,0.6-0.3,1v8.2h-4.3v-14.8h3.3L592.9,145.8z"/>
<path class="st2" d="M617.8,145.8c3.1-3,8.1-2.9,11.1,0.2c3,3.1,2.9,8.1-0.2,11.1c-1.5,1.4-3.4,2.2-5.4,2.2c-2.1,0-4-0.8-5.5-2.2
	v12.6h-4v-25.6h3.7L617.8,145.8z M625.4,148.7c-0.7-0.8-1.7-1.2-2.7-1.2c-1,0-2,0.4-2.8,1.2c-0.7,0.8-1.1,1.8-1.1,2.8
	c0,1.1,0.4,2.1,1.1,2.9c0.7,0.7,1.7,1.2,2.8,1.2c1,0,2-0.4,2.7-1.2c0.7-0.8,1.1-1.8,1.1-2.9C626.6,150.4,626.2,149.4,625.4,148.7
	L625.4,148.7z"/>
<path class="st2" d="M649.4,151.5c0.2,4.5-3.3,8.4-7.8,8.6c-4.5,0.2-8.4-3.3-8.6-7.8c-0.2-4.5,3.3-8.4,7.8-8.6c0.1,0,0.2,0,0.4,0
	C645.6,143.5,649.3,147,649.4,151.5C649.4,151.5,649.4,151.5,649.4,151.5z M645,151.5c0-1-0.4-2.1-1.1-2.8c-0.7-0.8-1.7-1.2-2.8-1.2
	c-1,0-2,0.4-2.7,1.2c-0.8,0.7-1.2,1.8-1.2,2.9c0,1.1,0.4,2.1,1.2,2.9c0.7,0.7,1.7,1.2,2.7,1.2c1,0,2-0.4,2.8-1.2
	C644.7,153.6,645.1,152.6,645,151.5L645,151.5z"/>
<path class="st2" d="M667.1,151.5c0.2,4.3-3.2,7.9-7.5,8.1c-4.3,0.2-7.9-3.2-8.1-7.5c0-0.2,0-0.4,0-0.6v-7.4h4.4v7.3
	c0,1,0.3,1.9,0.9,2.7c0.6,0.7,1.5,1.1,2.4,1.1c0.9,0,1.8-0.4,2.4-1.1c0.6-0.7,1-1.7,1-2.7v-7.3h4.4L667.1,151.5z"/>
<path class="st2" d="M673.5,145.8c1.3-1.4,3.1-2.2,5-2.1c0.9,0,1.7,0.1,2.5,0.4l-1.7,3.8c-1.9-0.9-4.3-0.1-5.2,1.8
	c-0.1,0.3-0.2,0.6-0.3,0.9v8.2h-4.3v-14.8h3.3L673.5,145.8z"/>
<path class="st2" d="M704.8,144.1v4h-3.5v10.8H697v-10.8h-3.1v-4h3.1v-5.5h4.4v5.5L704.8,144.1z"/>
<path class="st2" d="M723.6,151.5c0.2,4.5-3.3,8.4-7.8,8.6c-4.5,0.2-8.4-3.3-8.6-7.8c-0.2-4.5,3.3-8.4,7.8-8.6c0.1,0,0.2,0,0.4,0
	C719.8,143.5,723.5,147,723.6,151.5C723.6,151.5,723.6,151.5,723.6,151.5z M719.2,151.5c0-1-0.4-2.1-1.1-2.8
	c-0.7-0.8-1.7-1.2-2.8-1.2c-1,0-2,0.4-2.7,1.2c-0.8,0.7-1.2,1.8-1.2,2.9c0,1.1,0.4,2.1,1.2,2.9c0.7,0.7,1.7,1.2,2.7,1.2
	c1,0,2-0.4,2.8-1.2C718.9,153.6,719.3,152.6,719.2,151.5L719.2,151.5z"/>
<path class="st2" d="M741.3,151.5c0.2,4.3-3.2,7.9-7.5,8.1c-4.3,0.2-7.9-3.2-8.1-7.5c0-0.2,0-0.4,0-0.6v-7.4h4.4v7.3
	c0,1,0.3,1.9,0.9,2.7c0.6,0.7,1.5,1.1,2.5,1.2c0.9,0,1.8-0.4,2.4-1.1c0.6-0.7,1-1.7,1-2.7v-7.3h4.4L741.3,151.5z"/>
<path class="st2" d="M745.9,153.9c2.2,2.5,5.5,2.6,5.5,0.7c0-1.1-1.1-1.4-2.2-1.8c-2.9-0.9-4.9-1.8-4.9-4.6s2.5-4.5,5.3-4.5
	c2.1-0.1,4.2,0.6,5.9,1.8l-2,3.1c-2.9-2.1-4.8-1.9-5.1-0.3c-0.2,1.1,1.5,1.3,3.2,1.9c2.1,0.6,4.1,2,4.1,4.6c0,2.4-2.4,4.6-5.5,4.6
	c-2.6,0.1-5.2-0.9-7.1-2.7L745.9,153.9z"/>
</svg>
