<svg width="216" height="203" viewBox="0 0 216 203" fill="none" xmlns="http://www.w3.org/2000/svg">
<path d="M157.712 147.364C184.024 117.124 180.878 71.2476 150.686 44.8949C120.494 18.5423 74.6891 21.6931 48.3778 51.9325C22.0666 82.1718 25.2124 128.049 55.4043 154.401C85.5962 180.754 131.401 177.603 157.712 147.364Z" fill="#191F29"/>
<path d="M152.646 142.941C176.518 115.505 173.664 73.8798 146.27 49.9696C118.877 26.0595 77.3172 28.9182 53.4445 56.3549C29.5719 83.7916 32.4262 125.416 59.8198 149.327C87.2134 173.237 128.773 170.378 152.646 142.941Z" fill="white"/>
<path d="M127.216 99.9057C129.692 96.7173 131.107 93.1745 131.107 88.9232V87.8604C131.107 78.2949 123.679 70.5009 114.129 69.7923V63.0611H102.102V69.7923H97.15V63.0611H85.1235V69.7923H82.2938H76.2805V81.8377H82.2938V94.9459V106.991V121.517H76.2805V133.562H82.2938H85.1235V139.23H97.15V133.562H102.102V139.23H114.129V133.562H114.482C124.74 133.562 133.229 125.059 133.229 114.785V113.722C133.229 108.054 130.753 103.094 127.216 99.9057ZM94.3203 81.8377H96.7963H113.067C116.251 81.8377 119.081 84.6719 119.081 87.8604V88.5689C119.081 91.7574 116.251 94.5916 113.067 94.5916H94.3203V81.8377ZM121.203 114.785C121.203 118.328 118.02 121.517 114.482 121.517H96.7963H94.3203V106.991H113.067H114.482C118.02 106.991 121.203 110.18 121.203 113.722V114.785Z" fill="#191F29"/>
<path d="M9.07375 126.831C5.18283 115.848 3.41424 104.157 3.41424 92.1117C3.76796 80.4206 6.244 68.3752 10.4886 57.0384C15.087 45.7016 21.454 35.4276 29.5895 26.2164C37.7251 17.0052 47.6292 9.56544 58.9482 3.54276L65.3152 17.3595C55.4111 21.2565 46.2143 26.925 37.7251 34.3647C29.5895 41.8045 22.5151 50.3072 17.563 60.2269C7.65888 80.0663 4.12167 104.157 9.07375 126.831Z" fill="#B5CD30"/>
<path d="M52.935 29.0506L60.3632 11.6911L42.6771 4.25131L53.2887 0L70.9748 7.43979L63.5466 24.7993L52.935 29.0506Z" fill="#B5CD30"/>
<path d="M125.801 4.2513C137.121 6.37695 148.44 10.6283 158.344 16.6509C168.602 22.6736 177.445 30.4677 185.226 40.0331C192.654 49.2443 198.668 60.2269 202.559 71.918C206.45 83.6091 208.218 96.0087 207.864 108.408L193.362 107.346C194.777 96.7173 194.423 85.7347 191.947 75.1064C189.471 64.4782 185.226 54.2042 179.213 44.6387C173.2 35.4276 165.418 26.9249 156.221 20.1937C147.378 12.7539 136.767 7.43978 125.801 4.2513Z" fill="#B5CD30"/>
<path d="M189.117 90.3403L201.144 105.22L216 93.5288L214.585 104.866L199.729 116.557L188.056 101.677L189.117 90.3403Z" fill="#B5CD30"/>
<path d="M175.676 165.447C168.601 174.658 159.758 182.806 149.501 188.829C139.243 194.852 127.924 199.457 115.897 201.583C103.871 203.709 91.4905 203.354 79.464 201.229C67.4375 198.749 55.7648 194.143 45.1532 187.766L53.6424 175.012C62.4854 181.035 72.3896 185.64 82.6475 188.829C93.2591 191.663 104.224 192.726 115.19 192.017C126.155 191.309 137.12 188.475 147.378 184.223C157.636 179.972 167.187 173.241 175.676 165.447Z" fill="#B5CD30"/>
<path d="M69.9136 179.618L51.1664 182.806L54.3499 201.583L45.1532 194.852L41.9697 176.075L60.7169 172.887L69.9136 179.618Z" fill="#B5CD30"/>
</svg>
