<svg width="410" height="410" viewBox="0 0 410 410" fill="none" xmlns="http://www.w3.org/2000/svg">
<g clip-path="url(#clip0_256_1377)">
<path d="M19.1924 170.708L41.9596 171.837C42.1123 171.84 42.2615 171.791 42.3816 171.696C42.5018 171.602 42.5855 171.469 42.6182 171.319L43.7471 166.615C43.7777 166.471 43.7625 166.321 43.7035 166.186C43.6444 166.051 43.5447 165.938 43.4181 165.863L33.2573 161.159V160.783L44.3116 161.676C44.4643 161.68 44.6135 161.63 44.7336 161.536C44.8538 161.441 44.9375 161.308 44.9702 161.159L46.0991 156.455C46.1475 156.311 46.1405 156.154 46.0796 156.015C46.0187 155.876 45.9086 155.764 45.7701 155.702L25.2137 145.871C24.9314 145.871 24.5549 145.871 24.4138 146.341L23.5668 149.587C23.5213 149.737 23.5353 149.898 23.6053 150.038C23.6753 150.178 23.7964 150.286 23.9435 150.34L37.5852 156.643C37.5852 156.643 37.5852 156.643 37.5852 156.925C37.5852 156.925 37.5849 156.925 37.3027 156.925L22.3908 155.514C22.3166 155.501 22.2405 155.502 22.1669 155.519C22.0933 155.535 22.0239 155.566 21.9625 155.61C21.9011 155.654 21.8492 155.71 21.8097 155.774C21.7702 155.838 21.7441 155.91 21.7328 155.984L20.98 158.901C20.9414 159.045 20.9529 159.198 21.0127 159.335C21.0725 159.472 21.1769 159.584 21.309 159.654L35.139 165.486C35.1696 165.527 35.1861 165.577 35.1861 165.628C35.1861 165.679 35.1696 165.728 35.139 165.769C35.139 165.769 35.1387 165.769 34.8094 165.769L19.804 164.781C19.6512 164.777 19.5021 164.827 19.3819 164.921C19.2618 165.016 19.178 165.149 19.1453 165.298L18.3455 168.544C18.5807 170.426 18.8632 170.708 19.1924 170.708Z" fill="#2196f3"/>
<path d="M30.5234 131.755L29.2405 134.89C29.1027 135.226 29.2638 135.611 29.6004 135.749L50.1486 144.159C50.4852 144.297 50.8698 144.136 51.0076 143.799L52.2905 140.665C52.4283 140.328 52.2671 139.944 51.9305 139.806L31.3824 131.395C31.0458 131.258 30.6612 131.419 30.5234 131.755Z" fill="#2196f3"/>
<path d="M36.8321 119.34L56.1655 130.206C56.3282 130.291 56.5176 130.309 56.6932 130.256C56.8688 130.203 57.0166 130.084 57.106 129.924L58.7529 127.008C58.7936 126.931 58.8185 126.846 58.8264 126.759C58.8342 126.673 58.8245 126.585 58.7982 126.502C58.772 126.419 58.7294 126.342 58.6731 126.275C58.6168 126.208 58.548 126.154 58.4704 126.114L48.3567 120.422C48.3567 120.422 48.3567 120.046 48.3567 120.093L60.8694 121.88C61.0563 121.92 61.2511 121.894 61.4218 121.809C61.5926 121.724 61.7292 121.583 61.81 121.41L63.7388 117.929C63.7883 117.857 63.8215 117.775 63.8364 117.688C63.8513 117.602 63.8478 117.513 63.8255 117.428C63.8032 117.344 63.7627 117.265 63.7072 117.197C63.6517 117.129 63.5826 117.074 63.504 117.035L44.17 106.169C44.0129 106.081 43.8282 106.056 43.6533 106.099C43.4783 106.143 43.3265 106.252 43.2295 106.404L41.5832 109.321C41.4988 109.483 41.4811 109.673 41.5338 109.848C41.5865 110.024 41.7051 110.172 41.8651 110.262L52.8729 116.424C52.8729 116.424 52.8729 116.8 52.8729 116.753L39.4661 114.495C39.2847 114.46 39.0971 114.482 38.9286 114.557C38.7601 114.633 38.6193 114.759 38.5255 114.918L36.5967 118.399C36.5082 118.557 36.4835 118.742 36.5272 118.917C36.571 119.092 36.6801 119.243 36.8321 119.34Z" fill="#2196f3"/>
<path d="M64.0686 104.805C65.7435 105.955 67.7967 106.416 69.8027 106.092C71.8087 105.768 73.6129 104.684 74.8403 103.064C75.522 102.282 76.0361 101.368 76.3499 100.38C76.6638 99.3906 76.771 98.3478 76.6652 97.3157C76.5593 96.2836 76.2424 95.2843 75.7344 94.3797C75.2263 93.4751 74.5376 92.6846 73.7114 92.0571C73.6501 91.9945 73.5768 91.9448 73.4961 91.9109C73.4153 91.8769 73.3287 91.8594 73.2411 91.8594C73.1535 91.8594 73.0669 91.8769 72.9862 91.9109C72.9054 91.9448 72.8321 91.9945 72.7708 92.0571L70.7008 94.6913C70.5901 94.8322 70.5302 95.0061 70.5302 95.1852C70.5302 95.3643 70.5901 95.5383 70.7008 95.6792C71.3105 96.2291 71.6776 96.9981 71.7217 97.8179C71.7658 98.6378 71.4834 99.4418 70.9362 100.054C70.7343 100.39 70.4667 100.682 70.1495 100.912C69.8323 101.142 69.4715 101.306 69.0895 101.394C68.7075 101.482 68.3121 101.492 67.9261 101.423C67.5402 101.354 67.1721 101.209 66.8437 100.995C64.167 99.3187 61.6752 97.3635 59.4111 95.1617C59.1308 94.8899 58.9086 94.5645 58.7565 94.2049C58.6043 93.8454 58.5256 93.4589 58.5256 93.0684C58.5256 92.678 58.6043 92.2915 58.7565 91.932C58.9086 91.5724 59.1308 91.247 59.4111 90.9752C59.6378 90.6327 59.9315 90.3393 60.2741 90.1127C60.6167 89.8861 61.0014 89.7308 61.4053 89.6562C61.8093 89.5816 62.224 89.5891 62.625 89.6783C63.0259 89.7675 63.4048 89.9366 63.739 90.1755C63.8003 90.2381 63.8735 90.2878 63.9543 90.3217C64.0351 90.3557 64.1216 90.3731 64.2092 90.3731C64.2968 90.3731 64.384 90.3557 64.4648 90.3217C64.5455 90.2878 64.6188 90.2381 64.6801 90.1755L66.7496 87.4942C66.8122 87.4329 66.8621 87.3597 66.896 87.2789C66.9299 87.1982 66.9471 87.1115 66.9471 87.0238C66.9471 86.9362 66.9299 86.8494 66.896 86.7687C66.8621 86.6879 66.8122 86.6147 66.7496 86.5534C65.9415 85.8972 65.0062 85.4158 64.0025 85.1396C62.9989 84.8634 61.9485 84.7984 60.9184 84.9488C59.8883 85.0991 58.9009 85.4614 58.018 86.0129C57.1351 86.5644 56.3764 87.293 55.7895 88.1528C54.542 89.7468 53.9451 91.7546 54.1197 93.7712C54.2943 95.7878 55.2271 97.6631 56.73 99.019C58.9656 101.201 61.4256 103.14 64.0686 104.805Z" fill="#2196f3"/>
<path d="M72.1262 69.9581L69.7344 72.3566C69.4775 72.6142 69.4781 73.0312 69.7356 73.288L85.4573 88.9659C85.7148 89.2227 86.1319 89.2221 86.3887 88.9645L88.7805 86.566C89.0374 86.3084 89.0364 85.8918 88.7789 85.635L73.0572 69.9571C72.7996 69.7003 72.383 69.7006 72.1262 69.9581Z" fill="#2196f3"/>
<path d="M83.1666 65.5267C83.2279 65.5893 83.3011 65.639 83.3819 65.6729C83.4627 65.7069 83.5492 65.7244 83.6369 65.7244C83.7245 65.7244 83.8116 65.7069 83.8924 65.6729C83.9732 65.639 84.0458 65.5893 84.1071 65.5267L87.4003 62.8925C87.426 62.8537 87.4609 62.8219 87.5019 62.7998C87.543 62.7778 87.5886 62.7662 87.6351 62.7662C87.6817 62.7662 87.7279 62.7778 87.7689 62.7998C87.81 62.8219 87.8448 62.8537 87.8706 62.8925L99.019 76.7693C99.0803 76.8318 99.1536 76.8815 99.2343 76.9155C99.3151 76.9494 99.4017 76.9669 99.4893 76.9669C99.5769 76.9669 99.664 76.9494 99.7448 76.9155C99.8256 76.8815 99.8988 76.8318 99.9601 76.7693L102.594 74.6525C102.657 74.5912 102.707 74.518 102.741 74.4372C102.774 74.3564 102.792 74.2697 102.792 74.182C102.792 74.0944 102.774 74.0077 102.741 73.9269C102.707 73.8462 102.657 73.773 102.594 73.7117L91.4456 59.8349C91.4144 59.8042 91.3897 59.7676 91.3727 59.7273C91.3557 59.6869 91.3469 59.6435 91.3469 59.5997C91.3469 59.5559 91.3557 59.5125 91.3727 59.4721C91.3897 59.4317 91.4144 59.3952 91.4456 59.3645L94.7382 56.7303C94.8008 56.669 94.8507 56.5957 94.8846 56.5149C94.9186 56.4342 94.9363 56.3475 94.9363 56.2598C94.9363 56.1722 94.9186 56.0855 94.8846 56.0047C94.8507 55.924 94.8008 55.8507 94.7382 55.7894L92.6216 53.1552C92.5603 53.0926 92.4871 53.0429 92.4063 53.009C92.3255 52.975 92.239 52.9575 92.1514 52.9575C92.0637 52.9575 91.9772 52.975 91.8964 53.009C91.8156 53.0429 91.7424 53.0926 91.6811 53.1552L80.9558 61.8106C80.8933 61.8719 80.8433 61.9451 80.8094 62.0259C80.7755 62.1066 80.7583 62.1933 80.7583 62.2809C80.7583 62.3686 80.7755 62.4553 80.8094 62.5361C80.8433 62.6169 80.8933 62.6901 80.9558 62.7514L83.1666 65.5267Z" fill="#2196f3"/>
<path d="M100.759 47.9806L113.601 57.7179L117.176 63.6449C117.265 63.7936 117.408 63.9016 117.575 63.9456C117.743 63.9896 117.92 63.9661 118.07 63.8801L120.987 62.1396C121.102 62.0103 121.167 61.8428 121.167 61.6692C121.167 61.4956 121.102 61.3282 120.987 61.1988L117.412 55.3188L114.777 39.4193C114.772 39.3108 114.74 39.2053 114.685 39.1121C114.629 39.0188 114.552 38.9407 114.458 38.8848C114.365 38.8289 114.26 38.797 114.151 38.7918C114.043 38.7866 113.935 38.8082 113.837 38.8549L110.685 40.7835C110.616 40.814 110.555 40.8577 110.504 40.9122C110.453 40.9666 110.412 41.0308 110.386 41.1008C110.36 41.1708 110.348 41.2454 110.351 41.3201C110.353 41.3949 110.371 41.4682 110.403 41.5361L112.425 50.9441H112.096L104.523 44.6408C104.408 44.553 104.267 44.5055 104.123 44.5055C103.978 44.5055 103.838 44.553 103.723 44.6408L100.524 46.5694C100.337 46.6006 100.17 46.7049 100.06 46.8593C99.9497 47.0136 99.9053 47.2055 99.9365 47.3926C99.9677 47.5798 100.072 47.7468 100.226 47.8571C100.38 47.9674 100.572 48.0118 100.759 47.9806Z" fill="#2196f3"/>
<path d="M144.554 42.9005C145.368 44.6744 146.799 46.092 148.58 46.889C150.362 47.686 152.372 47.8081 154.237 47.2325C156.102 46.6569 157.694 45.4229 158.716 43.7604C159.739 42.098 160.122 40.1205 159.795 38.1965C159.145 35.1273 158.184 32.1325 156.925 29.2588C156.112 27.4849 154.681 26.0673 152.899 25.2703C151.117 24.4733 149.107 24.3513 147.242 24.9269C145.377 25.5025 143.785 26.7364 142.762 28.3989C141.74 30.0613 141.357 32.0388 141.684 33.9628C142.334 37.032 143.295 40.0268 144.554 42.9005ZM148.505 28.7885C148.866 28.6344 149.254 28.5536 149.647 28.5508C150.039 28.5479 150.428 28.623 150.792 28.7718C151.155 28.9206 151.485 29.1401 151.763 29.4175C152.04 29.695 152.26 30.0247 152.409 30.3878C153.689 33.2535 154.651 36.2505 155.279 39.3254C155.406 40.1055 155.25 40.9057 154.836 41.5797C154.423 42.2536 153.781 42.7564 153.028 42.9961C152.274 43.2358 151.46 43.1965 150.733 42.8852C150.006 42.574 149.416 42.0118 149.069 41.3011C147.811 38.4274 146.85 35.4326 146.2 32.3635C146.073 31.605 146.241 30.8267 146.67 30.1881C147.098 29.5496 147.755 29.0993 148.505 28.9296V28.7885Z" fill="#2196f3"/>
<path d="M172.26 42.4299L175.553 41.9125C175.732 41.8781 175.891 41.7756 175.996 41.6264C176.102 41.4773 176.145 41.2932 176.117 41.1128L174.706 32.8338C174.703 32.7483 174.73 32.6645 174.781 32.5961C174.833 32.5277 174.906 32.4788 174.989 32.4575L181.95 31.2815C182.037 31.27 182.121 31.2412 182.197 31.197C182.272 31.1527 182.338 31.0938 182.391 31.0237C182.443 30.9536 182.481 30.8738 182.503 30.7888C182.524 30.7038 182.528 30.6154 182.515 30.5288L181.95 27.189C181.916 27.0098 181.814 26.8508 181.664 26.7455C181.515 26.6403 181.331 26.5969 181.15 26.6245L174.236 27.8005C174.189 27.8146 174.14 27.8183 174.092 27.8112C174.044 27.8041 173.998 27.7864 173.957 27.7594C173.917 27.7325 173.883 27.6968 173.858 27.6551C173.833 27.6134 173.817 27.5667 173.813 27.5183L173.154 23.5669C173.138 23.523 173.134 23.476 173.141 23.4299C173.148 23.3839 173.166 23.3403 173.194 23.303C173.222 23.2657 173.259 23.236 173.301 23.2164C173.343 23.1968 173.39 23.1879 173.436 23.1906L180.727 21.9676C180.907 21.9332 181.065 21.8306 181.171 21.6815C181.276 21.5324 181.319 21.3483 181.292 21.1679L180.727 17.8751C180.693 17.6958 180.59 17.5369 180.441 17.4316C180.292 17.3264 180.108 17.283 179.928 17.3106L168.356 19.2393C168.177 19.2737 168.018 19.3762 167.912 19.5253C167.807 19.6744 167.764 19.8585 167.791 20.0389L171.461 41.9125C171.505 42.083 171.612 42.2307 171.76 42.3265C171.908 42.4222 172.087 42.4591 172.26 42.4299Z" fill="#2196f3"/>
<path d="M193.993 39.5605H197.333C197.511 39.5485 197.679 39.469 197.801 39.3379C197.923 39.2069 197.992 39.0342 197.991 38.8549L197.709 30.4818C197.709 30.2466 197.709 30.1525 197.991 30.1055H205.047C205.226 30.0935 205.393 30.014 205.516 29.8829C205.638 29.7519 205.706 29.5792 205.706 29.3999V26.0601C205.694 25.8812 205.614 25.7136 205.483 25.5913C205.352 25.469 205.179 25.4011 205 25.4015H197.944C197.903 25.4084 197.862 25.4062 197.822 25.3952C197.782 25.3841 197.745 25.3644 197.713 25.3375C197.682 25.3105 197.657 25.2771 197.64 25.2394C197.623 25.2016 197.614 25.1606 197.614 25.1193V21.0738C197.608 21.033 197.61 20.9912 197.621 20.9513C197.632 20.9114 197.652 20.8745 197.679 20.8431C197.706 20.8117 197.739 20.7865 197.777 20.7695C197.815 20.7525 197.856 20.7439 197.897 20.7445L205.282 20.4623C205.373 20.4625 205.462 20.4441 205.546 20.4081C205.629 20.3721 205.704 20.3193 205.766 20.2531C205.827 20.1868 205.875 20.1086 205.905 20.0232C205.935 19.9378 205.947 19.8471 205.941 19.7567V16.4169C205.929 16.238 205.849 16.0704 205.718 15.9481C205.587 15.8258 205.414 15.7579 205.235 15.7583L193.475 16.1816C193.296 16.1936 193.129 16.2732 193.006 16.4042C192.884 16.5353 192.816 16.708 192.817 16.8873L193.616 39.043C193.63 39.1542 193.672 39.26 193.737 39.3505C193.803 39.4411 193.891 39.5133 193.993 39.5605Z" fill="#2196f3"/>
<path d="M216.897 16.7338L215.217 38.8728C215.189 39.2355 215.461 39.5519 215.823 39.5794L219.201 39.8357C219.563 39.8632 219.88 39.5914 219.907 39.2288L221.587 17.0897C221.615 16.7271 221.343 16.4107 220.98 16.3832L217.603 16.1269C217.241 16.0993 216.924 16.3711 216.897 16.7338Z" fill="#2196f3"/>
<path d="M237.739 42.9005C238.748 43.1785 239.804 43.2431 240.839 43.0903C241.874 42.9374 242.866 42.5704 243.752 42.0127C244.637 41.4549 245.396 40.7187 245.981 39.851C246.565 38.9834 246.963 38.0033 247.147 36.9734C247.175 36.8054 247.137 36.6332 247.041 36.4929C246.944 36.3525 246.797 36.255 246.63 36.2208L243.338 35.5623C243.248 35.5418 243.154 35.5405 243.064 35.5585C242.973 35.5764 242.888 35.6133 242.812 35.6665C242.737 35.7197 242.673 35.7882 242.626 35.8675C242.579 35.9468 242.549 36.0351 242.538 36.1267C242.317 36.9199 241.795 37.5952 241.083 38.0084C240.371 38.4215 239.526 38.5397 238.728 38.3376C237.936 38.2545 237.21 37.8615 236.708 37.2444C236.205 36.6274 235.967 35.8366 236.046 35.0448C236.336 31.8545 236.95 28.7022 237.881 25.6368C238.119 24.8766 238.649 24.2418 239.354 23.8715C240.06 23.5012 240.883 23.4256 241.644 23.6612C242.05 23.7068 242.442 23.8344 242.797 24.0364C243.152 24.2384 243.462 24.5105 243.708 24.8362C243.955 25.1618 244.132 25.5341 244.23 25.9306C244.328 26.327 244.344 26.7392 244.278 27.1421C244.257 27.2287 244.254 27.3186 244.269 27.4064C244.285 27.4941 244.318 27.5779 244.366 27.6526C244.414 27.7274 244.477 27.7915 244.551 27.8412C244.625 27.8909 244.708 27.9251 244.795 27.9417L248.089 28.6003C248.261 28.6195 248.435 28.5785 248.581 28.4842C248.726 28.3899 248.835 28.2481 248.888 28.0829C249.112 27.0659 249.123 26.0136 248.919 24.9924C248.715 23.9711 248.302 23.0032 247.705 22.1499C247.108 21.2966 246.341 20.5765 245.451 20.035C244.562 19.4935 243.57 19.1425 242.538 19.0042C240.537 18.5457 238.437 18.8834 236.681 19.9456C234.925 21.0079 233.652 22.7115 233.13 24.6961C232.166 27.7552 231.535 30.9094 231.248 34.104C231 36.1223 231.535 38.159 232.742 39.7952C233.95 41.4314 235.738 42.5427 237.739 42.9005Z" fill="#2196f3"/>
<path d="M262.366 25.4026L255.387 46.48C255.272 46.8253 255.46 47.1979 255.805 47.3122L259.02 48.3768C259.365 48.4911 259.738 48.3038 259.852 47.9586L266.831 26.8812C266.945 26.5359 266.758 26.1633 266.413 26.0489L263.198 24.9844C262.852 24.87 262.48 25.0573 262.366 25.4026Z" fill="#2196f3"/>
<path d="M267.798 51.4146L270.997 52.9199C271.112 53.0076 271.253 53.0551 271.397 53.0551C271.542 53.0551 271.682 53.0076 271.797 52.9199L274.102 50.1916C274.102 50.1916 274.525 49.8152 274.76 50.1916L279.464 52.3554C279.533 52.4513 279.571 52.5665 279.571 52.6847C279.571 52.8028 279.533 52.918 279.464 53.0139L278.947 56.589C278.923 56.7329 278.941 56.8806 279 57.0142C279.058 57.1478 279.155 57.2615 279.277 57.3416L282.475 58.7999C282.992 59.0351 283.322 58.7998 283.369 58.5176L287.461 35.7033C287.485 35.5607 287.461 35.4143 287.393 35.2868C287.325 35.1593 287.216 35.0577 287.085 34.9976L283.134 32.5986C283.016 32.5177 282.877 32.4744 282.734 32.4744C282.591 32.4744 282.451 32.5177 282.334 32.5986L267.375 50.2856C267.281 50.756 267.328 51.4146 267.798 51.4146ZM277.63 45.4876L282.334 38.8549L280.358 46.8517C280.358 47.1339 280.358 47.1339 279.935 46.8517L277.159 45.5816C277.159 45.5816 277.442 45.7228 277.63 45.4876Z" fill="#2196f3"/>
<path d="M290.942 63.2686L300.35 69.4779C300.484 69.5847 300.65 69.643 300.821 69.643C300.992 69.643 301.157 69.5847 301.291 69.4779L303.125 66.6555C303.241 66.5261 303.305 66.3586 303.305 66.1851C303.305 66.0115 303.241 65.844 303.125 65.7147L297.245 61.9044C297.214 61.8738 297.19 61.8372 297.173 61.7968C297.156 61.7565 297.147 61.713 297.147 61.6692C297.147 61.6254 297.156 61.5821 297.173 61.5417C297.19 61.5013 297.214 61.4647 297.245 61.4341L306.936 46.4753C306.999 46.414 307.048 46.3409 307.082 46.2601C307.116 46.1793 307.134 46.0926 307.134 46.005C307.134 45.9174 307.116 45.8306 307.082 45.7498C307.048 45.669 306.999 45.5959 306.936 45.5346L304.113 43.7C303.963 43.614 303.785 43.5905 303.618 43.6345C303.451 43.6785 303.308 43.7865 303.22 43.9352L291.13 62.516C291.029 62.6093 290.957 62.7303 290.923 62.8641C290.89 62.9979 290.897 63.1385 290.942 63.2686Z" fill="#2196f3"/>
<path d="M326.974 92.7158C327.036 92.7784 327.109 92.8281 327.19 92.862C327.27 92.8959 327.358 92.9135 327.445 92.9135C327.533 92.9135 327.619 92.8959 327.7 92.862C327.781 92.8281 327.854 92.7784 327.915 92.7158L330.315 90.3168C330.384 90.2594 330.439 90.1875 330.477 90.1062C330.515 90.0249 330.535 89.9362 330.535 89.8464C330.535 89.7565 330.515 89.6678 330.477 89.5865C330.439 89.5052 330.384 89.4334 330.315 89.376L325.469 84.3427C325.438 84.312 325.413 84.2754 325.396 84.235C325.379 84.1946 325.371 84.1513 325.371 84.1075C325.371 84.0637 325.379 84.0203 325.396 83.9799C325.413 83.9395 325.438 83.9029 325.469 83.8723L338.076 71.2656C338.145 71.2082 338.201 71.1363 338.239 71.055C338.277 70.9737 338.297 70.885 338.297 70.7952C338.297 70.7054 338.277 70.6167 338.239 70.5354C338.201 70.4541 338.145 70.3822 338.076 70.3248L335.724 67.9728C335.663 67.9102 335.59 67.8605 335.509 67.8265C335.428 67.7926 335.341 67.7751 335.253 67.7751C335.166 67.7751 335.079 67.7926 334.998 67.8265C334.918 67.8605 334.844 67.9102 334.783 67.9728L319.072 83.6371C319.003 83.6945 318.947 83.7663 318.909 83.8476C318.871 83.9289 318.851 84.0177 318.851 84.1075C318.851 84.1973 318.871 84.286 318.909 84.3673C318.947 84.4486 319.003 84.5205 319.072 84.5779L326.974 92.7158Z" fill="#2196f3"/>
<path d="M332.149 98.4545L334.313 101.277C334.416 101.37 334.55 101.421 334.689 101.421C334.828 101.421 334.962 101.37 335.066 101.277L338.405 99.9128C338.688 99.9128 338.923 99.9128 339.111 99.9128L342.169 103.958C342.258 104.054 342.308 104.18 342.308 104.311C342.308 104.442 342.258 104.568 342.169 104.664L340.052 107.58C339.964 107.695 339.917 107.836 339.917 107.98C339.917 108.125 339.964 108.265 340.052 108.38L342.169 111.202C342.498 111.626 342.921 111.579 343.109 111.202L357.221 92.9509C357.309 92.836 357.357 92.6955 357.357 92.551C357.357 92.4065 357.309 92.266 357.221 92.1512L354.54 88.5761C354.461 88.4431 354.335 88.3449 354.187 88.3012C354.038 88.2576 353.879 88.2718 353.74 88.341L332.29 97.0433C332.008 97.7019 331.82 98.1253 332.149 98.4545ZM343.627 97.796L351.012 94.221L345.555 100.383C345.555 100.383 345.226 100.383 345.132 100.383L343.251 97.9371C343.251 97.9371 343.344 97.9842 343.627 97.8901V97.796Z" fill="#2196f3"/>
<path d="M347.155 119.717L350.965 126.679C351.391 127.525 351.993 128.271 352.729 128.867C353.466 129.463 354.32 129.895 355.237 130.135C356.153 130.375 357.111 130.418 358.045 130.26C358.979 130.102 359.869 129.747 360.655 129.219C361.401 128.806 362.056 128.248 362.581 127.577C363.106 126.907 363.491 126.137 363.713 125.314C363.713 125.032 363.713 124.938 364.23 124.985C365.806 125.43 367.493 125.245 368.934 124.468C369.724 124.065 370.425 123.51 370.998 122.834C371.571 122.158 372.003 121.374 372.27 120.529C372.538 119.684 372.634 118.795 372.554 117.912C372.473 117.03 372.218 116.172 371.804 115.389L367.947 108.427C367.907 108.349 367.852 108.281 367.785 108.224C367.719 108.168 367.642 108.125 367.558 108.099C367.475 108.073 367.388 108.063 367.301 108.071C367.214 108.079 367.13 108.104 367.053 108.145L347.625 118.823C347.531 118.843 347.443 118.884 347.366 118.942C347.289 119 347.226 119.075 347.181 119.16C347.136 119.245 347.111 119.339 347.106 119.435C347.102 119.532 347.118 119.628 347.155 119.717ZM362.067 116.048L365.265 114.307C365.291 114.277 365.324 114.253 365.361 114.237C365.397 114.22 365.437 114.212 365.477 114.212C365.517 114.212 365.556 114.22 365.593 114.237C365.629 114.253 365.662 114.277 365.689 114.307L367.382 117.365C367.658 117.866 367.729 118.455 367.58 119.008C367.431 119.561 367.073 120.034 366.582 120.328C366.06 120.587 365.46 120.639 364.902 120.473C364.343 120.308 363.868 119.936 363.572 119.434L361.925 116.377C361.915 116.314 361.922 116.25 361.947 116.191C361.972 116.133 362.014 116.083 362.067 116.048ZM353.458 120.752L357.316 118.635C357.346 118.603 357.382 118.579 357.423 118.562C357.463 118.545 357.507 118.536 357.55 118.536C357.594 118.536 357.638 118.545 357.678 118.562C357.719 118.579 357.755 118.603 357.786 118.635L359.479 121.692C359.761 122.274 359.806 122.943 359.604 123.558C359.402 124.172 358.97 124.684 358.397 124.985C358.12 125.155 357.812 125.268 357.491 125.317C357.169 125.366 356.841 125.351 356.526 125.272C356.211 125.194 355.915 125.053 355.654 124.858C355.394 124.663 355.175 124.419 355.011 124.138L353.317 121.081C353.329 120.989 353.373 120.905 353.442 120.845C353.512 120.784 353.601 120.751 353.693 120.752H353.458Z" fill="#2196f3"/>
<path d="M358.115 141.543L362.443 153.115C362.506 153.276 362.63 153.407 362.789 153.477C362.947 153.548 363.127 153.553 363.29 153.491L366.441 152.315C366.604 152.252 366.738 152.13 366.816 151.973C366.894 151.817 366.912 151.637 366.865 151.469L364.042 143.989C363.992 143.93 363.965 143.855 363.965 143.777C363.965 143.7 363.992 143.625 364.042 143.566L367.805 142.155C367.832 142.125 367.864 142.1 367.901 142.084C367.937 142.068 367.977 142.059 368.017 142.059C368.057 142.059 368.097 142.068 368.133 142.084C368.17 142.1 368.202 142.125 368.228 142.155L370.863 149.258C370.936 149.423 371.069 149.554 371.235 149.624C371.401 149.694 371.588 149.697 371.756 149.634L374.908 148.458C375.07 148.395 375.2 148.27 375.271 148.112C375.341 147.953 375.346 147.773 375.284 147.611L372.651 140.508C372.62 140.482 372.596 140.449 372.58 140.413C372.563 140.376 372.555 140.337 372.555 140.297C372.555 140.256 372.563 140.217 372.58 140.18C372.596 140.144 372.62 140.111 372.651 140.085L376.413 138.674C376.44 138.644 376.473 138.62 376.509 138.603C376.546 138.587 376.585 138.578 376.625 138.578C376.665 138.578 376.705 138.587 376.741 138.603C376.778 138.62 376.811 138.644 376.837 138.674L379.612 146.012C379.675 146.173 379.799 146.304 379.958 146.374C380.117 146.445 380.296 146.45 380.459 146.388L383.611 145.212C383.772 145.149 383.902 145.025 383.973 144.866C384.043 144.708 384.048 144.528 383.987 144.365L379.754 132.935C379.681 132.77 379.548 132.639 379.381 132.569C379.215 132.499 379.028 132.495 378.86 132.558L358.397 140.79C358.267 140.861 358.167 140.976 358.115 141.114C358.063 141.252 358.063 141.405 358.115 141.543Z" fill="#2196f3"/>
<path d="M365.406 163.511L367.946 174.659C367.991 174.827 368.099 174.971 368.249 175.059C368.399 175.147 368.577 175.173 368.746 175.13L372.039 174.424C372.208 174.362 372.351 174.244 372.445 174.091C372.539 173.937 372.578 173.756 372.556 173.577L370.957 166.71C370.957 166.71 370.957 166.38 371.239 166.333L388.597 162.382C388.768 162.337 388.915 162.231 389.011 162.083C389.107 161.935 389.144 161.756 389.114 161.582L388.362 158.289C388.308 158.124 388.2 157.982 388.054 157.888C387.908 157.794 387.734 157.753 387.562 157.772L365.924 162.476C365.805 162.48 365.69 162.516 365.59 162.58C365.491 162.644 365.41 162.734 365.357 162.84C365.304 162.946 365.281 163.064 365.29 163.182C365.298 163.3 365.338 163.414 365.406 163.511Z" fill="#2196f3"/>
<path d="M57.3417 283.368L54.0491 277.112C54.0094 277.035 53.9544 276.966 53.8878 276.909C53.8212 276.853 53.7441 276.811 53.6609 276.784C53.5778 276.758 53.4905 276.748 53.4037 276.756C53.3169 276.764 53.2322 276.789 53.1551 276.83L33.5392 287.226C33.3909 287.314 33.2806 287.454 33.2286 287.619C33.1765 287.784 33.1867 287.962 33.2573 288.12L36.5969 294.376C37.5847 296.057 39.1619 297.31 41.0224 297.893C42.8829 298.475 44.8937 298.345 46.6635 297.528C49.3487 296.472 51.9052 295.115 54.284 293.482C55.9599 292.478 57.2018 290.886 57.7672 289.016C58.3325 287.146 58.1808 285.133 57.3417 283.368ZM52.0732 289.296C49.6835 290.938 47.1103 292.295 44.4057 293.341C43.7572 293.635 43.0224 293.678 42.3443 293.46C41.6662 293.243 41.0931 292.781 40.7365 292.165L39.4663 289.813C39.435 289.782 39.4103 289.746 39.3934 289.705C39.3764 289.665 39.3675 289.622 39.3675 289.578C39.3675 289.534 39.3764 289.491 39.3934 289.45C39.4103 289.41 39.435 289.373 39.4663 289.343L51.3675 283.039C51.394 283.009 51.4269 282.985 51.4634 282.969C51.4999 282.952 51.5394 282.944 51.5794 282.944C51.6195 282.944 51.6589 282.952 51.6954 282.969C51.7319 282.985 51.7642 283.009 51.7907 283.039L53.0609 285.438C53.3956 286.115 53.4555 286.894 53.2274 287.614C52.9993 288.333 52.5011 288.936 51.8378 289.296H52.0732Z" fill="#2196f3"/>
<path d="M65.4794 313.662L61.0579 307.547C61.0266 307.516 61.0014 307.48 60.9844 307.439C60.9675 307.399 60.9592 307.356 60.9592 307.312C60.9592 307.268 60.9675 307.225 60.9844 307.184C61.0014 307.144 61.0266 307.107 61.0579 307.077L64.3034 304.677C64.3701 304.624 64.4533 304.595 64.5388 304.595C64.6243 304.595 64.7069 304.624 64.7737 304.677L69.4777 311.028C69.539 311.09 69.6122 311.14 69.693 311.174C69.7738 311.208 69.8609 311.226 69.9485 311.226C70.0362 311.226 70.1227 311.208 70.2035 311.174C70.2843 311.14 70.3575 311.09 70.4188 311.028L73.1469 309.052C73.2095 308.991 73.2594 308.918 73.2934 308.837C73.3273 308.756 73.3445 308.669 73.3445 308.582C73.3445 308.494 73.3273 308.407 73.2934 308.327C73.2594 308.246 73.2095 308.173 73.1469 308.111L65.9968 298.233C65.9355 298.17 65.8622 298.121 65.7814 298.087C65.7007 298.053 65.6141 298.035 65.5265 298.035C65.4389 298.035 65.3523 298.053 65.2715 298.087C65.1908 298.121 65.1175 298.17 65.0562 298.233L47.0866 311.263C46.9709 311.392 46.9075 311.56 46.9075 311.733C46.9075 311.907 46.9709 312.075 47.0866 312.204L54.331 322.176C54.3923 322.239 54.4655 322.289 54.5463 322.323C54.6271 322.357 54.7136 322.374 54.8012 322.374C54.8889 322.374 54.976 322.357 55.0568 322.323C55.1375 322.289 55.2108 322.239 55.2721 322.176L58.0002 320.201C58.0628 320.139 58.1127 320.066 58.1466 319.985C58.1806 319.905 58.1977 319.818 58.1977 319.73C58.1977 319.643 58.1806 319.556 58.1466 319.475C58.1127 319.394 58.0628 319.321 58.0002 319.26L53.2962 312.815C53.2649 312.785 53.2403 312.748 53.2233 312.708C53.2063 312.667 53.1975 312.624 53.1975 312.58C53.1975 312.536 53.2063 312.493 53.2233 312.453C53.2403 312.412 53.2649 312.376 53.2962 312.345L56.5888 309.993C56.6194 309.962 56.6564 309.937 56.6967 309.92C56.7371 309.903 56.7804 309.894 56.8242 309.894C56.868 309.894 56.9113 309.903 56.9517 309.92C56.9921 309.937 57.0284 309.962 57.0591 309.993L61.4811 316.155C61.6105 316.271 61.7778 316.335 61.9514 316.335C62.125 316.335 62.2923 316.271 62.4217 316.155L65.1504 314.18C65.2431 314.126 65.3215 314.052 65.3789 313.961C65.4363 313.871 65.4706 313.769 65.4794 313.662Z" fill="#2196f3"/>
<path d="M85.0482 332.196C85.8057 331.483 86.4093 330.623 86.8219 329.669C87.2346 328.714 87.4473 327.685 87.4473 326.645C87.4473 325.605 87.2346 324.576 86.8219 323.622C86.4093 322.667 85.8057 321.807 85.0482 321.094C83.6464 319.627 81.7391 318.747 79.7125 318.633C77.686 318.52 75.6916 319.181 74.1346 320.483C71.6637 322.43 69.3947 324.621 67.3611 327.021C65.9578 328.492 65.175 330.446 65.175 332.478C65.175 334.51 65.9578 336.465 67.3611 337.935C68.0321 338.731 68.8618 339.379 69.7975 339.836C70.7332 340.293 71.7543 340.55 72.7949 340.589C73.8355 340.629 74.8727 340.451 75.8406 340.067C76.8085 339.683 77.6855 339.101 78.4154 338.358C78.478 338.297 78.5279 338.224 78.5618 338.143C78.5957 338.062 78.6129 337.975 78.6129 337.888C78.6129 337.8 78.5957 337.713 78.5618 337.633C78.5279 337.552 78.478 337.479 78.4154 337.417L76.0634 334.971C75.9315 334.842 75.7542 334.769 75.5696 334.769C75.3849 334.769 75.2076 334.842 75.0757 334.971C74.7638 335.234 74.4032 335.432 74.0146 335.555C73.6259 335.679 73.2167 335.724 72.8104 335.689C72.4042 335.654 72.009 335.54 71.6471 335.352C71.2851 335.164 70.9633 334.907 70.7008 334.595C70.4036 334.342 70.1593 334.033 69.9818 333.686C69.8044 333.338 69.6972 332.959 69.6666 332.57C69.636 332.181 69.6829 331.79 69.8038 331.419C69.9248 331.048 70.1177 330.704 70.3717 330.408C72.3795 327.984 74.6512 325.791 77.1452 323.87C77.4502 323.624 77.8009 323.441 78.1771 323.331C78.5532 323.222 78.9477 323.188 79.337 323.232C79.7263 323.275 80.1028 323.396 80.4452 323.586C80.7877 323.776 81.0891 324.033 81.3318 324.34C81.9121 324.93 82.2374 325.724 82.2374 326.551C82.2374 327.378 81.9121 328.172 81.3318 328.762C81.2693 328.823 81.2199 328.896 81.186 328.977C81.152 329.058 81.1343 329.145 81.1343 329.232C81.1343 329.32 81.152 329.407 81.186 329.487C81.2199 329.568 81.2693 329.641 81.3318 329.703L83.6838 332.149C83.7182 332.301 83.802 332.437 83.9221 332.537C84.0423 332.636 84.1918 332.693 84.3476 332.699C84.5035 332.704 84.6568 332.657 84.7835 332.567C84.9101 332.476 85.0034 332.345 85.0482 332.196Z" fill="#2196f3"/>
<path d="M89.4697 350.918C89.4697 350.918 89.4697 350.636 89.4697 350.448L100.477 336.336C100.54 336.274 100.589 336.201 100.623 336.12C100.657 336.04 100.675 335.953 100.675 335.865C100.675 335.778 100.657 335.691 100.623 335.61C100.589 335.529 100.54 335.456 100.477 335.395L97.843 333.325C97.7111 333.196 97.5338 333.123 97.3491 333.123C97.1645 333.123 96.9872 333.196 96.8553 333.325L83.1665 350.73C83.1039 350.791 83.054 350.864 83.0201 350.945C82.9862 351.026 82.969 351.113 82.969 351.2C82.969 351.288 82.9862 351.375 83.0201 351.455C83.054 351.536 83.1039 351.609 83.1665 351.671L92.1513 358.774C92.2126 358.836 92.2859 358.886 92.3667 358.92C92.4474 358.954 92.534 358.971 92.6216 358.971C92.7092 358.971 92.7958 358.954 92.8766 358.92C92.9573 358.886 93.0306 358.836 93.0919 358.774L95.1619 356.139C95.2245 356.078 95.2739 356.005 95.3078 355.924C95.3417 355.843 95.3595 355.757 95.3595 355.669C95.3595 355.581 95.3417 355.495 95.3078 355.414C95.2739 355.333 95.2245 355.26 95.1619 355.199L89.4697 350.918Z" fill="#2196f3"/>
<path d="M121.646 350.118L117.788 347.86C117.736 347.808 117.673 347.766 117.605 347.737C117.536 347.709 117.463 347.694 117.388 347.694C117.314 347.694 117.24 347.709 117.172 347.737C117.103 347.766 117.041 347.808 116.989 347.86L100.431 363.995C100.195 363.995 100.195 364.654 100.431 364.936L103.441 366.723C103.559 366.804 103.698 366.848 103.841 366.848C103.984 366.848 104.123 366.804 104.24 366.723L106.828 364.23C106.924 364.141 107.05 364.091 107.18 364.091C107.311 364.091 107.438 364.141 107.534 364.23L111.908 366.817C111.975 366.923 112.011 367.045 112.011 367.17C112.011 367.295 111.975 367.418 111.908 367.523L111.015 371.051C110.991 371.19 111.005 371.333 111.054 371.465C111.104 371.598 111.187 371.714 111.296 371.804L114.354 373.591C114.825 373.873 115.154 373.591 115.248 373.356L121.551 351.106C121.694 350.987 121.784 350.816 121.801 350.632C121.819 350.447 121.763 350.262 121.646 350.118ZM116.942 354.164L114.213 361.925C114.213 362.161 114.213 362.208 113.79 361.925L111.155 360.326C111.155 360.326 110.92 360.326 111.155 359.856L116.659 353.787C116.659 353.787 116.894 354.07 116.847 354.164H116.942Z" fill="#2196f3"/>
<path d="M142.013 359.949L135.193 357.127C135.024 357.064 134.837 357.067 134.671 357.137C134.505 357.207 134.371 357.338 134.299 357.503L125.832 378.013C125.77 378.175 125.775 378.355 125.846 378.513C125.916 378.672 126.046 378.796 126.208 378.859L129.313 380.177C129.482 380.24 129.668 380.236 129.834 380.166C130 380.096 130.134 379.965 130.206 379.8L133.405 372.039C133.432 372.009 133.464 371.985 133.501 371.968C133.537 371.952 133.577 371.943 133.617 371.943C133.657 371.943 133.697 371.952 133.733 371.968C133.77 371.985 133.802 372.009 133.828 372.039L134.628 372.368C134.76 372.418 134.872 372.509 134.948 372.628C135.024 372.746 135.061 372.886 135.052 373.026V382.011C135.059 382.221 135.124 382.424 135.24 382.598C135.357 382.773 135.519 382.912 135.71 382.999L138.909 384.316C139.52 384.316 139.897 384.316 139.897 383.61V374.485C139.897 373.92 139.897 373.685 140.508 373.544C141.716 373.4 142.862 372.936 143.83 372.2C144.797 371.464 145.551 370.482 146.012 369.357C146.378 368.478 146.565 367.535 146.561 366.583C146.558 365.631 146.364 364.689 145.992 363.812C145.619 362.936 145.075 362.143 144.392 361.48C143.709 360.816 142.9 360.296 142.013 359.949ZM141.496 367.382C141.383 367.669 141.213 367.93 140.996 368.151C140.78 368.371 140.521 368.546 140.236 368.664C139.951 368.783 139.645 368.843 139.336 368.841C139.027 368.838 138.722 368.774 138.438 368.652L135.616 367.523C135.585 367.492 135.56 367.456 135.543 367.415C135.526 367.375 135.517 367.331 135.517 367.288C135.517 367.244 135.526 367.201 135.543 367.16C135.56 367.12 135.585 367.083 135.616 367.052L137.121 363.336C137.188 363.283 137.271 363.254 137.356 363.254C137.442 363.254 137.525 363.283 137.592 363.336L140.367 364.512C140.821 364.817 141.157 365.268 141.319 365.79C141.482 366.312 141.461 366.873 141.261 367.382H141.496Z" fill="#2196f3"/>
<path d="M169.485 368.652L157.678 365.641C157.509 365.598 157.331 365.624 157.181 365.712C157.031 365.8 156.923 365.944 156.878 366.112L151.327 387.609C151.298 387.783 151.335 387.961 151.431 388.109C151.527 388.257 151.674 388.364 151.845 388.409L163.793 391.466C163.961 391.509 164.14 391.484 164.29 391.396C164.44 391.308 164.549 391.164 164.593 390.996L165.439 387.75C165.482 387.569 165.452 387.379 165.355 387.22C165.258 387.062 165.102 386.948 164.922 386.903L157.254 384.928C157.254 384.928 156.925 384.928 156.973 384.551L158.007 380.647C158.007 380.647 158.007 380.318 158.383 380.412L165.722 382.246C165.805 382.275 165.894 382.285 165.981 382.276C166.069 382.267 166.154 382.24 166.229 382.195C166.305 382.15 166.371 382.09 166.421 382.017C166.472 381.945 166.506 381.863 166.521 381.776L167.368 378.53C167.411 378.362 167.386 378.183 167.298 378.034C167.209 377.884 167.066 377.775 166.898 377.731L159.559 375.849C159.51 375.79 159.482 375.715 159.482 375.637C159.482 375.56 159.51 375.485 159.559 375.426L160.547 371.521C160.558 371.477 160.578 371.436 160.606 371.399C160.633 371.363 160.667 371.333 160.707 371.311C160.747 371.289 160.791 371.275 160.836 371.271C160.882 371.267 160.928 371.272 160.971 371.286L168.544 373.215C168.631 373.243 168.722 373.254 168.812 373.245C168.903 373.237 168.991 373.209 169.071 373.165C169.15 373.121 169.219 373.061 169.275 372.988C169.33 372.916 169.369 372.833 169.391 372.744L170.19 369.499C170.222 369.394 170.228 369.283 170.207 369.176C170.185 369.069 170.136 368.969 170.066 368.884C169.996 368.8 169.907 368.735 169.805 368.695C169.704 368.654 169.593 368.639 169.485 368.652Z" fill="#2196f3"/>
<path d="M186.796 371.286L179.787 370.533C179.7 370.52 179.612 370.524 179.527 370.546C179.442 370.567 179.362 370.605 179.292 370.658C179.222 370.71 179.163 370.776 179.119 370.852C179.074 370.927 179.046 371.011 179.034 371.098L176.588 393.16C176.574 393.34 176.63 393.518 176.744 393.658C176.858 393.798 177.021 393.889 177.199 393.912L184.208 394.665C186.154 394.797 188.079 394.201 189.609 392.992C191.139 391.784 192.165 390.049 192.487 388.126C193.108 385.283 193.423 382.381 193.429 379.471C193.533 377.527 192.913 375.614 191.688 374.102C190.462 372.59 188.719 371.586 186.796 371.286ZM187.783 387.562C187.668 388.276 187.291 388.922 186.726 389.374C186.161 389.827 185.448 390.052 184.726 390.008L182.045 389.679C181.998 389.682 181.952 389.673 181.91 389.653C181.868 389.633 181.83 389.604 181.802 389.566C181.774 389.529 181.757 389.486 181.75 389.44C181.743 389.393 181.747 389.346 181.762 389.302L183.221 375.943C183.242 375.86 183.291 375.787 183.359 375.736C183.428 375.685 183.511 375.658 183.597 375.661L186.278 375.943C186.989 376.048 187.634 376.415 188.087 376.972C188.54 377.53 188.768 378.237 188.725 378.954C188.725 381.864 188.409 384.766 187.783 387.609V387.562Z" fill="#2196f3"/>
<path d="M225.368 371.286L218.03 372.133C217.943 372.144 217.86 372.173 217.784 372.217C217.708 372.262 217.642 372.321 217.59 372.391C217.537 372.461 217.499 372.541 217.478 372.626C217.457 372.711 217.453 372.799 217.466 372.886L219.912 394.9C219.936 395.079 220.026 395.242 220.166 395.356C220.306 395.47 220.484 395.525 220.664 395.512L224.005 395.135C224.183 395.112 224.346 395.021 224.46 394.881C224.574 394.741 224.63 394.563 224.616 394.383L223.675 386.01C223.675 386.01 223.675 385.68 223.957 385.633L226.968 385.304C228.839 385.092 230.55 384.145 231.723 382.672C232.896 381.199 233.436 379.32 233.224 377.448C233.012 375.577 232.065 373.867 230.592 372.693C229.119 371.52 227.24 370.98 225.368 371.192V371.286ZM226.45 380.694L223.44 381.023C223.396 381.039 223.349 381.044 223.303 381.037C223.257 381.03 223.213 381.011 223.176 380.983C223.139 380.955 223.109 380.919 223.089 380.876C223.07 380.834 223.061 380.788 223.063 380.741L222.593 376.743C222.593 376.508 222.593 376.366 222.922 376.366L225.933 375.99C226.552 375.949 227.164 376.145 227.644 376.538C228.125 376.931 228.438 377.492 228.52 378.107C228.592 378.689 228.444 379.278 228.104 379.756C227.765 380.235 227.259 380.57 226.686 380.694H226.45Z" fill="#2196f3"/>
<path d="M254.909 379.565C254.58 379.142 254.439 378.86 254.909 378.436C255.801 377.609 256.448 376.553 256.779 375.384C257.111 374.214 257.115 372.975 256.791 371.804C256.315 370.006 255.149 368.468 253.545 367.526C251.942 366.583 250.032 366.312 248.229 366.77L241.033 368.605C240.861 368.659 240.716 368.777 240.629 368.935C240.542 369.092 240.517 369.277 240.562 369.452L246.16 390.902C246.214 391.064 246.325 391.2 246.472 391.287C246.619 391.373 246.792 391.404 246.96 391.372L250.205 390.525C250.293 390.509 250.376 390.475 250.45 390.425C250.524 390.375 250.586 390.311 250.635 390.236C250.683 390.162 250.716 390.078 250.731 389.99C250.746 389.902 250.743 389.812 250.723 389.726L248.606 381.588C248.592 381.545 248.586 381.499 248.591 381.454C248.595 381.408 248.609 381.364 248.631 381.325C248.653 381.285 248.683 381.25 248.719 381.223C248.755 381.195 248.797 381.175 248.841 381.165L249.688 380.929C249.82 380.904 249.957 380.917 250.082 380.967C250.207 381.017 250.315 381.102 250.394 381.212L255.756 388.409C255.878 388.586 256.054 388.718 256.257 388.786C256.461 388.854 256.682 388.854 256.885 388.785L260.225 387.938C260.883 387.938 260.977 387.233 260.601 386.809L254.909 379.565ZM250.205 375.99L247.289 376.743C247.246 376.757 247.2 376.762 247.154 376.758C247.109 376.754 247.066 376.74 247.026 376.718C246.986 376.696 246.951 376.666 246.924 376.63C246.896 376.593 246.876 376.552 246.866 376.508L245.83 372.603C245.816 372.563 245.811 372.52 245.815 372.478C245.82 372.435 245.834 372.394 245.857 372.358C245.879 372.322 245.91 372.291 245.946 372.268C245.982 372.246 246.023 372.232 246.066 372.227L249.029 371.427C249.633 371.295 250.264 371.396 250.797 371.71C251.329 372.024 251.723 372.528 251.899 373.121C252.043 373.725 251.947 374.362 251.632 374.897C251.316 375.433 250.804 375.824 250.205 375.99Z" fill="#2196f3"/>
<path d="M280.546 362.395C279.58 360.66 278.007 359.343 276.128 358.698C274.25 358.053 272.199 358.126 270.371 358.903C268.543 359.679 267.067 361.105 266.227 362.905C265.387 364.705 265.243 366.752 265.822 368.652C266.748 371.661 267.994 374.563 269.539 377.307C270.504 379.043 272.078 380.36 273.957 381.005C275.835 381.65 277.886 381.577 279.714 380.8C281.542 380.023 283.017 378.598 283.857 376.798C284.697 374.998 284.841 372.951 284.262 371.051C283.327 368.044 282.082 365.143 280.546 362.395ZM277.912 376.507C277.567 376.696 277.187 376.814 276.796 376.855C276.405 376.895 276.009 376.858 275.633 376.744C275.256 376.63 274.906 376.442 274.603 376.192C274.299 375.941 274.049 375.633 273.866 375.284C272.337 372.539 271.107 369.637 270.197 366.629C270.052 365.877 270.17 365.098 270.53 364.423C270.891 363.747 271.473 363.216 272.178 362.919C272.884 362.621 273.67 362.575 274.406 362.788C275.141 363.001 275.781 363.46 276.218 364.089C277.748 366.834 278.978 369.736 279.888 372.744C280.034 373.132 280.098 373.547 280.077 373.961C280.055 374.375 279.948 374.78 279.762 375.151C279.577 375.522 279.317 375.851 278.998 376.117C278.68 376.383 278.31 376.58 277.912 376.696V376.507Z" fill="#2196f3"/>
<path d="M297.763 360.984L300.35 359.432C301.953 358.459 303.104 356.889 303.55 355.067C303.995 353.246 303.699 351.321 302.726 349.718C301.752 348.115 300.182 346.964 298.36 346.519C296.539 346.073 294.615 346.37 293.012 347.343L286.708 351.2C286.596 351.322 286.533 351.481 286.533 351.647C286.533 351.813 286.596 351.972 286.708 352.094L298.233 370.91C298.272 370.989 298.327 371.058 298.395 371.113C298.463 371.169 298.541 371.209 298.626 371.231C298.711 371.254 298.799 371.258 298.886 371.243C298.972 371.228 299.055 371.194 299.127 371.145L301.996 369.405C302.112 369.275 302.176 369.108 302.176 368.934C302.176 368.761 302.112 368.593 301.996 368.464L297.621 361.314C297.611 361.251 297.618 361.187 297.643 361.128C297.668 361.07 297.71 361.02 297.763 360.984ZM295.316 356.939C295.291 356.978 295.256 357.01 295.215 357.032C295.174 357.054 295.128 357.065 295.082 357.065C295.035 357.065 294.989 357.054 294.948 357.032C294.907 357.01 294.872 356.978 294.846 356.939L292.73 353.505C292.698 353.474 292.673 353.438 292.656 353.397C292.639 353.357 292.631 353.314 292.631 353.27C292.631 353.226 292.639 353.183 292.656 353.142C292.673 353.102 292.698 353.065 292.73 353.035L295.316 351.482C295.843 351.218 296.451 351.162 297.017 351.324C297.584 351.486 298.069 351.855 298.377 352.358C298.685 352.86 298.792 353.46 298.679 354.039C298.565 354.617 298.238 355.132 297.763 355.481L295.316 356.939Z" fill="#2196f3"/>
<path d="M328.386 345.461C328.324 345.399 328.251 345.349 328.17 345.315C328.089 345.281 328.003 345.264 327.915 345.264C327.828 345.264 327.741 345.281 327.66 345.315C327.58 345.349 327.506 345.399 327.445 345.461L321.283 350.494C321.283 350.494 320.906 350.494 320.812 350.494L318.272 347.39C318.233 347.364 318.201 347.329 318.179 347.288C318.157 347.247 318.146 347.201 318.146 347.155C318.146 347.108 318.157 347.062 318.179 347.021C318.201 346.98 318.233 346.945 318.272 346.919L324.105 342.215C324.224 342.078 324.29 341.903 324.29 341.721C324.29 341.54 324.224 341.365 324.105 341.228L321.941 338.64C321.88 338.578 321.807 338.528 321.726 338.494C321.645 338.46 321.558 338.443 321.471 338.443C321.383 338.443 321.297 338.46 321.216 338.494C321.135 338.528 321.062 338.578 321.001 338.64L315.168 343.344C315.168 343.344 314.791 343.344 314.697 343.344L312.157 340.24C312.157 340.24 312.157 339.863 312.157 339.769L318.225 335.065C318.287 335.004 318.337 334.931 318.371 334.85C318.405 334.769 318.423 334.683 318.423 334.595C318.423 334.507 318.405 334.421 318.371 334.34C318.337 334.259 318.287 334.186 318.225 334.125L316.108 331.49C316.047 331.428 315.974 331.378 315.893 331.344C315.812 331.31 315.726 331.293 315.638 331.293C315.55 331.293 315.463 331.31 315.382 331.344C315.302 331.378 315.229 331.428 315.168 331.49L305.76 339.205C305.697 339.266 305.647 339.339 305.613 339.42C305.579 339.501 305.562 339.588 305.562 339.675C305.562 339.763 305.579 339.85 305.613 339.93C305.647 340.011 305.697 340.084 305.76 340.146L319.872 357.362C319.933 357.425 320.006 357.474 320.086 357.508C320.167 357.542 320.254 357.56 320.342 357.56C320.43 357.56 320.516 357.542 320.597 357.508C320.678 357.474 320.751 357.425 320.812 357.362L330.22 349.554C330.283 349.492 330.333 349.419 330.367 349.338C330.401 349.258 330.418 349.171 330.418 349.083C330.418 348.996 330.401 348.909 330.367 348.828C330.333 348.747 330.283 348.674 330.22 348.613L328.386 345.461Z" fill="#2196f3"/>
<path d="M349.412 328.527L340.804 325.422C340.287 325.422 340.052 325.093 340.146 324.528C340.438 323.347 340.409 322.109 340.061 320.943C339.714 319.777 339.061 318.724 338.17 317.896C336.792 316.635 334.973 315.967 333.106 316.038C331.24 316.108 329.476 316.911 328.197 318.272L323.164 323.682C323.102 323.743 323.052 323.816 323.018 323.897C322.984 323.978 322.967 324.064 322.967 324.152C322.967 324.24 322.984 324.326 323.018 324.407C323.052 324.488 323.102 324.561 323.164 324.622L339.44 339.722C339.501 339.785 339.575 339.835 339.655 339.868C339.736 339.902 339.823 339.92 339.91 339.92C339.998 339.92 340.085 339.902 340.166 339.868C340.247 339.835 340.32 339.785 340.381 339.722L342.639 337.229C342.701 337.168 342.751 337.095 342.785 337.014C342.819 336.933 342.836 336.846 342.836 336.759C342.836 336.671 342.819 336.584 342.785 336.504C342.751 336.423 342.701 336.35 342.639 336.288L336.476 330.549C336.445 330.519 336.42 330.482 336.403 330.442C336.387 330.401 336.378 330.358 336.378 330.314C336.378 330.27 336.387 330.227 336.403 330.187C336.42 330.146 336.445 330.11 336.476 330.079L337.041 329.468C337.148 329.384 337.281 329.338 337.418 329.338C337.554 329.338 337.686 329.384 337.794 329.468L346.214 332.572C346.4 332.673 346.615 332.704 346.822 332.661C347.028 332.618 347.213 332.503 347.343 332.337L349.695 329.797C349.778 329.778 349.857 329.744 349.927 329.695C349.997 329.645 350.057 329.583 350.103 329.511C350.148 329.439 350.18 329.359 350.194 329.274C350.209 329.19 350.207 329.104 350.189 329.021C350.17 328.937 350.136 328.858 350.087 328.788C350.037 328.718 349.975 328.659 349.903 328.613C349.831 328.567 349.75 328.536 349.666 328.521C349.582 328.506 349.496 328.508 349.412 328.527ZM335.3 324.669L333.231 326.88C333.2 326.912 333.163 326.937 333.123 326.953C333.083 326.97 333.039 326.979 332.996 326.979C332.952 326.979 332.908 326.97 332.868 326.953C332.828 326.937 332.791 326.912 332.761 326.88L329.797 324.105C329.766 324.074 329.741 324.038 329.724 323.997C329.707 323.957 329.698 323.914 329.698 323.87C329.698 323.826 329.707 323.783 329.724 323.742C329.741 323.702 329.766 323.665 329.797 323.635L331.867 321.424C332.085 321.203 332.345 321.028 332.632 320.909C332.919 320.789 333.226 320.728 333.536 320.728C333.847 320.728 334.155 320.789 334.441 320.909C334.728 321.028 334.988 321.203 335.206 321.424C335.398 321.658 335.542 321.929 335.629 322.219C335.716 322.509 335.746 322.813 335.715 323.115C335.684 323.416 335.595 323.709 335.451 323.976C335.307 324.242 335.112 324.478 334.877 324.669H335.3Z" fill="#2196f3"/>
<path d="M347.296 302.373C347.296 302.373 347.296 302.09 347.296 301.902L349.742 298.515C349.805 298.454 349.854 298.381 349.888 298.3C349.922 298.219 349.94 298.132 349.94 298.045C349.94 297.957 349.922 297.871 349.888 297.79C349.854 297.709 349.805 297.636 349.742 297.574L347.013 295.599C346.952 295.536 346.879 295.486 346.798 295.453C346.717 295.419 346.631 295.401 346.543 295.401C346.456 295.401 346.369 295.419 346.288 295.453C346.207 295.486 346.134 295.536 346.073 295.599L338.123 306.841C338.06 306.903 338.011 306.976 337.977 307.057C337.943 307.137 337.925 307.224 337.925 307.312C337.925 307.399 337.943 307.486 337.977 307.567C338.011 307.648 338.06 307.721 338.123 307.782L340.899 309.711C340.96 309.773 341.033 309.823 341.114 309.857C341.195 309.891 341.281 309.908 341.369 309.908C341.456 309.908 341.543 309.891 341.624 309.857C341.705 309.823 341.778 309.773 341.839 309.711L344.238 306.277C344.269 306.246 344.306 306.221 344.346 306.204C344.387 306.187 344.43 306.178 344.474 306.178C344.517 306.178 344.561 306.187 344.601 306.204C344.642 306.221 344.678 306.246 344.709 306.277L359.244 316.532C359.306 316.594 359.378 316.644 359.459 316.678C359.54 316.712 359.627 316.729 359.715 316.729C359.802 316.729 359.889 316.712 359.97 316.678C360.05 316.644 360.124 316.594 360.185 316.532L362.114 313.803C362.176 313.742 362.226 313.669 362.26 313.588C362.293 313.507 362.311 313.42 362.311 313.333C362.311 313.245 362.293 313.159 362.26 313.078C362.226 312.997 362.176 312.924 362.114 312.862L347.296 302.373Z" fill="#2196f3"/>
<path d="M374.532 291.318L368.417 288.12L357.927 275.889C357.866 275.802 357.785 275.73 357.691 275.681C357.597 275.632 357.492 275.606 357.386 275.606C357.28 275.606 357.175 275.632 357.08 275.681C356.986 275.73 356.906 275.802 356.845 275.889L355.104 279.182C355.008 279.293 354.955 279.435 354.955 279.582C354.955 279.729 355.008 279.871 355.104 279.982L361.831 287.179V287.508L352.094 286.05C351.67 286.05 351.482 286.05 351.341 286.379L349.601 289.625C349.552 289.726 349.531 289.839 349.539 289.951C349.546 290.063 349.582 290.172 349.643 290.266C349.704 290.36 349.789 290.438 349.889 290.49C349.988 290.542 350.1 290.568 350.212 290.566L366.206 292.259L372.368 295.505C372.525 295.575 372.704 295.586 372.868 295.534C373.033 295.481 373.173 295.371 373.262 295.223L374.814 292.259C374.898 292.096 374.916 291.907 374.863 291.731C374.811 291.556 374.692 291.408 374.532 291.318Z" fill="#2196f3"/>
<path d="M205 0C164.461 0.0279067 124.84 12.0746 91.1464 34.6173C57.4529 57.1599 31.1994 89.1863 15.7051 126.648C0.210731 164.109 -3.82866 205.323 4.09724 245.08C12.0231 284.837 31.5585 321.351 60.2339 350.007C88.9093 378.662 125.437 398.173 165.199 406.071C204.961 413.97 246.173 409.902 283.624 394.382C321.074 378.862 353.082 352.586 375.602 318.877C398.121 285.168 410.141 245.539 410.141 205C410.079 150.625 388.441 98.4976 349.979 60.062C311.517 21.6265 259.375 0.0248897 205 0ZM205 2.96347C258.605 3.0258 309.993 24.364 347.876 62.2906C385.758 100.217 407.036 151.63 407.036 205.235C407.036 205.941 407.036 206.646 407.036 207.352L359.432 223.251C360.134 217.256 360.479 211.224 360.467 205.188C360.467 164.018 344.112 124.534 315.001 95.4227C285.889 66.3111 246.405 49.9564 205.235 49.9564C164.065 49.9564 124.581 66.3111 95.4697 95.4227C66.3581 124.534 50.0031 164.018 50.0031 205.188C49.9907 211.193 50.3367 217.193 51.0384 223.157L3.99848 207.352H3.52819C3.52819 206.693 3.52819 205.988 3.52819 205.282C3.51533 151.767 24.7104 100.427 62.4722 62.5061C100.234 24.5856 151.485 3.17504 205 2.96347ZM406.942 210.221C406.66 221.981 405.338 233.693 402.991 245.219L363.195 224.851L406.942 210.221ZM277.3 114.354L216.148 97.3256H277.3V114.354ZM204.859 101.559L227.485 184.632L205.8 162.946C205.505 162.675 205.118 162.525 204.717 162.525C204.317 162.525 203.931 162.675 203.636 162.946L181.292 185.243L204.859 101.559ZM201.002 252.087L193.334 227.72H216.054L208.387 252.087C208.293 252.378 208.293 252.69 208.387 252.981L217.795 284.168H191.641L201.049 252.981C201.091 252.745 201.075 252.503 201.002 252.275V252.087ZM224.522 216.948L226.685 224.616H218.642C218.291 224.497 217.911 224.497 217.56 224.616H191.781C191.431 224.497 191.051 224.497 190.7 224.616H182.609L184.632 216.948H224.522ZM188.583 287.508H189.006H189.429C189.707 287.582 189.999 287.582 190.276 287.508H219.018C219.297 287.571 219.586 287.571 219.865 287.508H220.335H220.711H227.626L231.107 296.681H178.234L181.668 287.508H188.583ZM234.353 296.681L230.166 285.391C230.047 285.102 229.844 284.854 229.585 284.678C229.326 284.503 229.021 284.407 228.708 284.403H220.947L211.539 252.793L219.394 227.955H228.802C229.039 227.954 229.273 227.898 229.485 227.792C229.697 227.686 229.881 227.532 230.025 227.344C230.163 227.148 230.26 226.926 230.309 226.691C230.357 226.457 230.357 226.214 230.307 225.98L227.25 215.208C227.159 214.888 226.969 214.606 226.707 214.403C226.444 214.2 226.124 214.086 225.792 214.079H207.869L229.555 192.393L258.014 296.681H234.353ZM204.67 212.903L181.15 189.383L204.67 165.863L228.19 189.383L204.67 212.903ZM179.363 191.97L201.472 214.079H183.456C183.11 214.079 182.773 214.195 182.5 214.408C182.228 214.621 182.034 214.919 181.95 215.255L179.128 226.027C179.025 226.231 178.971 226.457 178.971 226.685C178.971 226.914 179.025 227.14 179.128 227.344C179.276 227.528 179.462 227.677 179.673 227.783C179.884 227.888 180.115 227.947 180.351 227.955H189.759L197.568 252.793L188.16 284.403H180.398C180.092 284.41 179.794 284.508 179.543 284.684C179.291 284.859 179.098 285.106 178.987 285.391L174.753 296.681H149.728L179.363 191.97ZM176.023 299.785H248.935L204.717 312.345L159.23 299.785H176.023ZM260.413 299.785V299.409L205.988 99.6305L276.219 119.199V314.321H213.561L260.413 299.785ZM202.601 98.1252L146.153 297.904V298.186L193.193 311.216H129.548V117.647L202.601 98.1252ZM130.912 114.589V97.4667H193.381L130.912 114.589ZM127.854 314.368C127.854 314.767 128.013 315.15 128.295 315.432C128.578 315.715 128.961 315.873 129.36 315.873H192.534L127.572 334.313L72.2064 133.876L127.854 118.635V314.368ZM278.805 315.873C279.007 315.879 279.208 315.845 279.396 315.772C279.584 315.699 279.756 315.59 279.9 315.449C280.045 315.309 280.161 315.141 280.239 314.955C280.318 314.769 280.358 314.569 280.358 314.368V118.399L339.158 134.769L284.074 334.219L217.277 315.732L278.805 315.873ZM280.358 115.342V95.9614C280.358 95.5497 280.194 95.1549 279.903 94.8637C279.612 94.5726 279.217 94.4091 278.805 94.4091H129.36C129.158 94.409 128.958 94.4495 128.773 94.528C128.587 94.6066 128.419 94.7217 128.278 94.8665C128.138 95.0113 128.028 95.1828 127.955 95.3709C127.883 95.559 127.848 95.7598 127.854 95.9614V115.436L72.3471 130.63C85.6039 107.019 104.925 87.3759 128.313 73.7297C151.701 60.0836 178.307 52.9293 205.385 53.0061C232.463 53.0828 259.029 60.3877 282.34 74.1662C305.65 87.9447 324.859 107.697 337.982 131.382L280.358 115.342ZM69.5719 135.804L124.326 334.078C92.0123 313.904 68.4525 282.331 58.312 245.611C48.1716 208.891 52.1899 169.702 69.5719 135.804ZM203.777 315.873H205.706L280.97 336.759C257.891 350.146 231.694 357.22 205.014 357.269C178.334 357.319 152.111 350.342 128.983 337.041L203.777 315.873ZM341.463 138.062C357.877 171.436 361.485 209.671 351.602 245.526C341.719 281.381 319.032 312.368 287.837 332.619L341.463 138.062ZM47.0866 224.992L6.96202 245.501C4.61466 233.88 3.29205 222.074 3.01025 210.221L47.0866 224.992ZM204.953 407.178C158.874 407.19 114.172 391.468 78.2449 362.615C42.3177 333.762 17.3189 293.507 7.38522 248.512L50.9442 226.215C54.4553 251.73 64.2597 275.971 79.4742 296.753C94.6888 317.534 114.835 334.203 138.098 345.258C161.36 356.313 187.008 361.406 212.73 360.079C238.451 358.751 263.438 351.044 285.438 337.653L285.768 337.417C305.313 325.374 321.949 309.153 334.482 289.918C347.015 270.683 355.134 248.912 358.256 226.168L401.862 248.465C391.936 293.325 367.034 333.469 331.253 362.29C295.472 391.112 250.945 406.893 205 407.036L204.953 407.178Z" fill="#2196f3"/>
</g>
<defs>
<clipPath id="clip0_256_1377">
<rect width="410" height="410" fill="#2196f3"/>
</clipPath>
</defs>
</svg>
