<svg width="147" height="36" viewBox="0 0 147 36" fill="none" xmlns="http://www.w3.org/2000/svg">
<path d="M2.59204 6.012H12.096C13.2 6.012 14.304 6.096 15.408 6.264C16.536 6.408 17.544 6.72 18.432 7.2C19.32 7.656 20.04 8.304 20.592 9.144C21.144 9.984 21.42 11.1 21.42 12.492C21.42 13.932 21.012 15.132 20.196 16.092C19.404 17.028 18.348 17.7 17.028 18.108V18.18C17.868 18.3 18.624 18.54 19.296 18.9C19.992 19.236 20.58 19.68 21.06 20.232C21.564 20.76 21.948 21.384 22.212 22.104C22.476 22.824 22.608 23.592 22.608 24.408C22.608 25.752 22.32 26.88 21.744 27.792C21.168 28.68 20.424 29.4 19.512 29.952C18.6 30.504 17.568 30.9 16.416 31.14C15.288 31.38 14.16 31.5 13.032 31.5H2.59204V6.012ZM8.20804 16.2H12.276C12.708 16.2 13.128 16.152 13.536 16.056C13.968 15.96 14.352 15.804 14.688 15.588C15.024 15.372 15.288 15.084 15.48 14.724C15.696 14.364 15.804 13.932 15.804 13.428C15.804 12.9 15.684 12.468 15.444 12.132C15.228 11.772 14.94 11.496 14.58 11.304C14.22 11.112 13.812 10.98 13.356 10.908C12.9 10.812 12.456 10.764 12.024 10.764H8.20804V16.2ZM8.20804 26.748H13.248C13.68 26.748 14.112 26.7 14.544 26.604C15 26.508 15.408 26.34 15.768 26.1C16.128 25.86 16.416 25.548 16.632 25.164C16.872 24.78 16.992 24.312 16.992 23.76C16.992 23.16 16.836 22.68 16.524 22.32C16.236 21.936 15.864 21.648 15.408 21.456C14.952 21.264 14.46 21.132 13.932 21.06C13.404 20.988 12.912 20.952 12.456 20.952H8.20804V26.748Z" fill="black"/>
<path d="M23.8118 14.004H29.2118V16.812H29.2838C29.8598 15.732 30.5438 14.928 31.3358 14.4C32.1278 13.848 33.1238 13.572 34.3238 13.572C34.6358 13.572 34.9478 13.584 35.2598 13.608C35.5718 13.632 35.8598 13.68 36.1238 13.752V18.684C35.7398 18.564 35.3558 18.48 34.9718 18.432C34.6118 18.36 34.2278 18.324 33.8198 18.324C32.7878 18.324 31.9718 18.468 31.3718 18.756C30.7718 19.044 30.3038 19.452 29.9678 19.98C29.6558 20.484 29.4518 21.096 29.3558 21.816C29.2598 22.536 29.2118 23.328 29.2118 24.192V31.5H23.8118V14.004Z" fill="black"/>
<path d="M37.104 14.004H42.504V31.5H37.104V14.004ZM36.672 8.496C36.672 7.632 36.972 6.9 37.5719 6.3C38.1959 5.676 38.9399 5.364 39.804 5.364C40.6679 5.364 41.4 5.676 42 6.3C42.624 6.9 42.936 7.632 42.936 8.496C42.936 9.36 42.624 10.104 42 10.728C41.4 11.328 40.6679 11.628 39.804 11.628C38.9399 11.628 38.1959 11.328 37.5719 10.728C36.972 10.104 36.672 9.36 36.672 8.496Z" fill="black"/>
<path d="M44.9435 4.284H50.3435V20.916L56.3195 14.004H62.9435L55.9955 21.888L63.1235 31.5H56.3195L50.4155 22.644H50.3435V31.5H44.9435V4.284Z" fill="black"/>
<path d="M83.16 12.636C82.608 11.964 81.924 11.448 81.108 11.088C80.316 10.728 79.392 10.548 78.336 10.548C77.28 10.548 76.296 10.752 75.384 11.16C74.496 11.568 73.716 12.144 73.044 12.888C72.396 13.608 71.88 14.472 71.496 15.48C71.136 16.488 70.956 17.58 70.956 18.756C70.956 19.956 71.136 21.06 71.496 22.068C71.88 23.052 72.396 23.916 73.044 24.66C73.692 25.38 74.448 25.944 75.312 26.352C76.2 26.76 77.148 26.964 78.156 26.964C79.308 26.964 80.328 26.724 81.216 26.244C82.104 25.764 82.836 25.092 83.412 24.228L88.092 27.72C87.012 29.232 85.644 30.348 83.988 31.068C82.332 31.788 80.628 32.148 78.876 32.148C76.884 32.148 75.048 31.836 73.368 31.212C71.688 30.588 70.236 29.7 69.012 28.548C67.788 27.372 66.828 25.956 66.132 24.3C65.46 22.644 65.124 20.796 65.124 18.756C65.124 16.716 65.46 14.868 66.132 13.212C66.828 11.556 67.788 10.152 69.012 9C70.236 7.824 71.688 6.924 73.368 6.3C75.048 5.676 76.884 5.364 78.876 5.364C79.596 5.364 80.34 5.436 81.108 5.58C81.9 5.7 82.668 5.904 83.412 6.192C84.18 6.48 84.912 6.864 85.608 7.344C86.304 7.824 86.928 8.412 87.48 9.108L83.16 12.636ZM89.0846 4.284H94.4846V31.5H89.0846V4.284ZM113.772 31.5H108.588V29.124H108.516C108.324 29.46 108.072 29.796 107.76 30.132C107.472 30.468 107.112 30.768 106.68 31.032C106.248 31.296 105.756 31.512 105.204 31.68C104.652 31.848 104.052 31.932 103.404 31.932C102.036 31.932 100.92 31.728 100.056 31.32C99.2161 30.888 98.5561 30.3 98.0761 29.556C97.6201 28.812 97.3081 27.936 97.1401 26.928C96.9961 25.92 96.9241 24.828 96.9241 23.652V14.004H102.324V22.572C102.324 23.076 102.336 23.604 102.36 24.156C102.408 24.684 102.516 25.176 102.684 25.632C102.876 26.088 103.152 26.46 103.512 26.748C103.896 27.036 104.436 27.18 105.132 27.18C105.828 27.18 106.392 27.06 106.824 26.82C107.256 26.556 107.58 26.22 107.796 25.812C108.036 25.38 108.192 24.9 108.264 24.372C108.336 23.844 108.372 23.292 108.372 22.716V14.004H113.772V31.5ZM116.66 4.284H122.06V15.876H122.132C122.756 15.036 123.548 14.448 124.508 14.112C125.492 13.752 126.548 13.572 127.676 13.572C128.924 13.572 130.04 13.836 131.024 14.364C132.008 14.868 132.836 15.552 133.508 16.416C134.204 17.28 134.732 18.276 135.092 19.404C135.476 20.508 135.668 21.672 135.668 22.896C135.668 24.216 135.464 25.428 135.056 26.532C134.648 27.636 134.06 28.596 133.292 29.412C132.548 30.204 131.648 30.828 130.592 31.284C129.536 31.716 128.36 31.932 127.064 31.932C126.44 31.932 125.852 31.848 125.3 31.68C124.748 31.512 124.232 31.296 123.752 31.032C123.296 30.768 122.888 30.48 122.528 30.168C122.192 29.832 121.916 29.508 121.7 29.196H121.628V31.5H116.66V4.284ZM121.628 22.752C121.628 24.072 122 25.14 122.744 25.956C123.512 26.772 124.58 27.18 125.948 27.18C127.316 27.18 128.372 26.772 129.116 25.956C129.884 25.14 130.268 24.072 130.268 22.752C130.268 21.432 129.884 20.364 129.116 19.548C128.372 18.732 127.316 18.324 125.948 18.324C124.58 18.324 123.512 18.732 122.744 19.548C122 20.364 121.628 21.432 121.628 22.752ZM137.5 28.404C137.5 27.948 137.584 27.516 137.752 27.108C137.92 26.7 138.148 26.352 138.436 26.064C138.748 25.752 139.108 25.512 139.516 25.344C139.924 25.176 140.356 25.092 140.812 25.092C141.268 25.092 141.7 25.176 142.108 25.344C142.516 25.512 142.864 25.752 143.152 26.064C143.464 26.352 143.704 26.7 143.872 27.108C144.04 27.516 144.124 27.948 144.124 28.404C144.124 28.86 144.04 29.292 143.872 29.7C143.704 30.108 143.464 30.468 143.152 30.78C142.864 31.068 142.516 31.296 142.108 31.464C141.7 31.632 141.268 31.716 140.812 31.716C140.356 31.716 139.924 31.632 139.516 31.464C139.108 31.296 138.748 31.068 138.436 30.78C138.148 30.468 137.92 30.108 137.752 29.7C137.584 29.292 137.5 28.86 137.5 28.404Z" stroke="black"/>
</svg>
