<svg width="208" height="58" viewBox="0 0 208 58" fill="none" xmlns="http://www.w3.org/2000/svg">
<path d="M124.248 0C115.713 0 110.99 4.72001 110.99 16.061V41.7025C110.99 53.0461 115.713 57.7661 124.248 57.7661C132.783 57.7661 137.508 53.0461 137.508 41.7025V35.6796C137.508 35.2757 137.347 34.8884 137.061 34.6028C136.775 34.3171 136.387 34.1564 135.983 34.1557H128.469C128.064 34.1557 127.676 34.3162 127.39 34.602C127.104 34.8878 126.943 35.2754 126.943 35.6796V40.9899C126.943 45.7802 126.589 47.1871 124.261 47.1871C121.933 47.1871 121.582 45.7802 121.582 40.9899V16.7658C121.582 11.9756 121.933 10.5661 124.261 10.5661C126.589 10.5661 126.943 11.9756 126.943 16.7658V22.0735C126.942 22.2739 126.982 22.4723 127.058 22.6575C127.135 22.8427 127.247 23.011 127.389 23.1528C127.53 23.2946 127.699 23.407 127.884 23.4838C128.069 23.5605 128.268 23.6 128.469 23.6H135.996C136.401 23.5993 136.789 23.4382 137.075 23.152C137.361 22.8658 137.521 22.4779 137.521 22.0735V16.061C137.508 4.73301 132.783 0 124.248 0Z" fill="black"/>
<path d="M148.564 0.704742H141.036C140.194 0.704742 139.511 1.38703 139.511 2.22867V55.5374C139.511 56.3791 140.194 57.0614 141.036 57.0614H148.564C149.406 57.0614 150.089 56.3791 150.089 55.5374V2.22867C150.089 1.38703 149.406 0.704742 148.564 0.704742Z" fill="black"/>
<path d="M175.626 0.704742H153.571C153.166 0.704742 152.778 0.865294 152.492 1.15109C152.206 1.43688 152.045 1.82449 152.045 2.22866V9.74687C152.045 10.151 152.206 10.5387 152.492 10.8244C152.778 11.1102 153.166 11.2708 153.571 11.2708H157.783C158.188 11.2715 158.575 11.4323 158.861 11.7179C159.147 12.0035 159.308 12.3908 159.309 12.7947V55.5374C159.309 55.9416 159.47 56.3292 159.756 56.615C160.042 56.9008 160.43 57.0613 160.835 57.0613H168.362C168.767 57.0613 169.155 56.9008 169.441 56.615C169.727 56.3292 169.888 55.9416 169.888 55.5374V12.7947C169.888 12.3903 170.05 12.0027 170.336 11.717C170.623 11.4313 171.011 11.2708 171.416 11.2708H175.626C176.031 11.2708 176.419 11.1102 176.705 10.8244C176.991 10.5387 177.152 10.151 177.152 9.74687V2.22866C177.152 1.82449 176.991 1.43688 176.705 1.15109C176.419 0.865294 176.031 0.704742 175.626 0.704742Z" fill="black"/>
<path d="M206.469 0.704742H199.027C198.514 0.705167 198.018 0.886408 197.625 1.21655C197.233 1.5467 196.97 2.00457 196.882 2.50953L193.474 17.2157L193.458 17.2989C193.052 19.6394 193.005 19.6394 192.599 17.2989C192.594 17.2708 192.588 17.243 192.581 17.2157L189.178 2.51212C189.091 2.00738 188.828 1.54956 188.436 1.21938C188.044 0.889197 187.548 0.70786 187.035 0.707338H179.589C179.353 0.707694 179.121 0.76225 178.911 0.866753C178.7 0.971257 178.517 1.12289 178.374 1.30986C178.232 1.49682 178.135 1.71408 178.09 1.9447C178.046 2.17533 178.055 2.41312 178.117 2.63956L187.683 37.1385C187.72 37.2716 187.738 37.4089 187.738 37.5468V55.54C187.739 55.9444 187.9 56.3321 188.186 56.6178C188.473 56.9035 188.861 57.064 189.266 57.064H196.791C197.196 57.064 197.584 56.9035 197.871 56.6178C198.157 56.3321 198.318 55.9444 198.319 55.54V37.5442C198.319 37.4063 198.337 37.269 198.374 37.1359L207.94 2.63695C208.002 2.41052 208.011 2.17273 207.967 1.9421C207.922 1.71147 207.825 1.49422 207.683 1.30726C207.54 1.12029 207.357 0.968654 207.146 0.86415C206.936 0.759647 206.704 0.705099 206.469 0.704742Z" fill="black"/>
<path d="M56.2517 2.94121C56.2517 1.43809 55.554 0.751547 54.0413 0.748947H46.7901C45.1602 0.748947 44.5015 1.40429 44.4989 3.04784C44.4989 3.99184 44.4989 35.0555 44.4989 42.7557C44.4989 44.3681 43.8558 45.013 42.2441 45.0182C40.2133 45.0182 38.1824 45.0182 36.1516 45.0182C35.3497 45.0182 34.6233 44.8206 34.2562 44.056C34.0734 43.629 33.9847 43.1679 33.9958 42.7037C33.9802 33.1319 33.9802 23.5575 33.9958 13.9806C34.0045 13.716 33.9975 13.4512 33.975 13.1874C33.8526 12.1602 33.1939 11.4892 32.1524 11.4762C29.4533 11.445 26.7525 11.445 24.0499 11.4762C22.9928 11.4918 22.3341 12.2044 22.2429 13.2602C22.2221 13.5021 22.2429 13.7491 22.2429 13.9936C22.2429 23.5861 22.2429 33.1813 22.2429 42.7791C22.2429 44.3602 21.6024 45.0026 20.0272 45.013C19.1732 45.013 18.3218 45.013 17.4678 45.013H13.7394C12.8698 45.013 12.1772 44.6879 11.8726 43.8271C11.7592 43.4363 11.7108 43.0296 11.7294 42.6231C11.7294 35.8798 11.7294 4.99045 11.7294 1.65134C11.7294 1.13123 11.5446 0.655327 11.0264 0.496693C9.88083 0.148218 8.48787 1.07142 7.60524 1.67735C6.20583 2.67671 4.8766 3.77064 3.62688 4.95144C2.91273 5.58648 2.26302 6.29031 1.68716 7.0527C0.805323 8.22929 0.264843 9.62566 0.12497 11.0888C0.0755006 11.4918 0.0442531 12.35 0.0234239 13.4293C0.00780204 13.6113 0 13.7959 0 13.9858C0 14.7659 0 35.1387 0 43.372C0 44.9584 0.682145 45.6501 2.25214 45.6527C4.48607 45.6527 6.72 45.6527 8.95392 45.6527C10.3989 45.6527 11.0733 46.3367 11.0785 47.7904C11.0785 50.0711 11.0785 52.3544 11.0785 54.635C11.0785 56.0419 11.8232 56.7753 13.2291 56.7753C15.7078 56.7753 18.1856 56.7753 20.6625 56.7753C22.1831 56.7753 22.8912 56.0627 22.8938 54.5232C22.8938 52.2815 22.8938 50.0425 22.8938 47.8008C22.8938 46.3315 23.563 45.6527 25.0028 45.6501C27.1152 45.6501 29.2276 45.6501 31.3401 45.6501C32.6836 45.6501 33.3943 46.3809 33.3969 47.7306C33.3969 50.0139 33.3969 52.2945 33.3969 54.5752C33.3969 56.0809 34.0921 56.7675 35.6075 56.7701H42.856C44.4885 56.7701 45.1446 56.1122 45.1472 54.4712C45.1472 52.2503 45.1472 50.0295 45.1472 47.8086C45.1472 46.2951 45.7981 45.6475 47.2952 45.6449C49.4875 45.6449 51.6806 45.6449 53.8746 45.6449C55.6243 45.6449 56.3064 44.9584 56.3012 43.203C56.2934 34.9358 56.2544 4.99305 56.2517 2.94121Z" fill="black"/>
<path d="M105.556 11.9235C103.343 11.9235 101.13 11.9235 98.9144 11.9235C97.3158 11.9235 96.6674 11.2682 96.6648 9.65586C96.6648 7.4766 96.605 5.29473 96.6831 3.11807C96.7456 1.35489 95.626 0.683946 94.2747 0.691748C88.2421 0.728156 82.212 0.707353 76.1794 0.709954C74.4375 0.709954 73.7684 1.3705 73.7684 3.09467V43.6113C73.7556 44.3566 73.8956 45.0967 74.18 45.7859C74.4643 46.4751 74.8869 47.0988 75.4217 47.6188C78.2927 50.5002 81.1645 53.3816 84.0372 56.263C84.2033 56.4407 84.3894 56.5986 84.5917 56.7337C84.9901 56.9782 85.326 56.8507 85.4197 56.3982C85.4866 56.0172 85.5145 55.6303 85.503 55.2436C85.503 41.7987 85.503 28.3539 85.503 14.909C85.503 13.2108 86.1305 12.5685 87.8151 12.5685C89.7834 12.5685 91.7535 12.5685 93.7253 12.5685C95.3786 12.5685 96.0191 13.2108 96.0191 14.8518C96.0191 21.6132 96.0191 28.3746 96.0191 35.1361C96.0191 41.9599 96.0191 48.7864 96.0348 55.6103C96.0348 56.0108 96.053 56.8117 96.4253 56.8117C96.7976 56.8117 97.2064 56.5049 97.485 56.2318C100.432 53.2568 103.359 50.2505 106.291 47.2599C106.763 46.7931 107.136 46.2361 107.387 45.6222C107.639 45.0084 107.765 44.3501 107.756 43.6867C107.756 33.8271 107.756 23.9676 107.756 14.108C107.762 12.6075 107.074 11.9261 105.556 11.9235Z" fill="black"/>
<path d="M70.9127 2.43933C70.8502 1.24568 70.1785 0.520123 68.9964 0.507121C66.3563 0.477648 63.7171 0.477648 61.0787 0.507121C59.8967 0.520123 59.2275 1.26648 59.1885 2.45754C59.1885 2.68118 59.1885 2.90483 59.1885 3.12848V47.0597C59.1885 49.707 59.1885 52.3544 59.1885 55.0017C59.1885 56.2526 59.9331 57.0406 61.1178 57.0484C63.7371 57.064 66.3563 57.064 68.9756 57.0484C69.4702 57.0529 69.9472 56.8658 70.3066 56.5263C70.6659 56.1869 70.8794 55.7215 70.9023 55.228C70.9205 55.0251 70.9023 54.8197 70.9023 54.6169V2.92824C70.9283 2.7644 70.9283 2.60317 70.9127 2.43933Z" fill="black"/>
</svg>
